<?xml version="1.0" encoding="UTF-8"?>
<svg width="15px" height="15px" viewBox="0 0 15 15" version="1.1" xmlns="http://www.w3.org/2000/svg" xmlns:xlink="http://www.w3.org/1999/xlink">
    <!-- Generator: Sketch 45.2 (43514) - http://www.bohemiancoding.com/sketch -->
    <title>ic-ball</title>
    <desc>Created with Sketch.</desc>
    <defs></defs>
    <g id="Symbols" stroke="none" stroke-width="1" fill="none" fill-rule="evenodd">
        <g id="nav-left" transform="translate(-1.000000, -201.000000)">
            <g id="ic-ball" transform="translate(1.000000, 201.000000)">
                <g id="Shape">
                    <path d="M12.7784318,2.19245455 C11.3646136,0.778636364 9.48484091,0 7.48554545,0 C5.48611364,0 3.60634091,0.778636364 2.19245455,2.19252273 C0.778568182,3.60620455 -6.81818182e-05,5.48597727 0,7.48534091 C0,9.48470455 0.778704545,11.3644773 2.19259091,12.7783636 C3.60640909,14.1921136 5.48618182,14.9706818 7.48561364,14.9706818 C9.48490909,14.9706818 11.3646136,14.1921136 12.7782955,12.7784318 C14.1920455,11.3645455 14.9706136,9.48470455 14.9706818,7.48527273 C14.97075,5.48570455 14.1921818,3.606 12.7784318,2.19245455 Z M12.0550909,12.0552273 C11.0095909,13.1007955 9.66872727,13.7434773 8.22075,13.9063636 C8.21011364,13.656 8.18836364,13.4059773 8.15290909,13.1588182 L7.14054545,13.3041136 C7.17075,13.5148636 7.1895,13.7279318 7.19884091,13.9414091 C5.58027273,13.87125 4.06854545,13.2079091 2.91579545,12.0551591 C1.76290909,10.9022727 1.0995,9.39054545 1.02927273,7.77197727 C1.24275,7.78138636 1.45588636,7.80013636 1.66670455,7.83034091 L1.812,6.81797727 C1.56477273,6.78245455 1.31468182,6.76077273 1.06425,6.75006818 C1.22720455,5.30202273 1.86995455,3.96115909 2.91565909,2.91559091 C3.96122727,1.87009091 5.30215909,1.22734091 6.75013636,1.06431818 C6.76084091,1.31461364 6.78259091,1.56456818 6.81804545,1.81186364 L7.83040909,1.66656818 C7.80020455,1.45575 7.78145455,1.24261364 7.77211364,1.02920455 C9.39061364,1.09936364 10.9024091,1.76270455 12.0552955,2.91559091 C13.2081136,4.06827273 13.8713864,5.57993182 13.9414773,7.19863636 C13.7281364,7.18922727 13.515,7.17054545 13.30425,7.14034091 L13.1590909,8.15270455 C13.40625,8.18815909 13.6560682,8.21052273 13.9062955,8.22122727 C13.7432045,9.669 13.1005227,11.0097273 12.0550909,12.0552273 Z" fill="#FFFFFF" fill-rule="nonzero"></path>
                    <path d="M6.03654545,8.93420455 C5.77486364,8.67252273 5.49252273,8.42884091 5.1975,8.20997727 L4.58809091,9.03129545 C4.84295455,9.22043182 5.08690909,9.43104545 5.31334091,9.65740909 C5.53943182,9.8835 5.74984091,10.1271818 5.93877273,10.3816364 L6.76002273,9.77209091 C6.54136364,9.47747727 6.29795455,9.19554545 6.03654545,8.93420455 Z" fill="#35A211" fill-rule="nonzero"></path>
                    <path d="M6.29331818,10.9122273 C6.62147727,11.4605455 6.8655,12.0540682 7.01863636,12.6764318 L8.01177273,12.4320682 C7.83422727,11.7107727 7.55134091,11.02275 7.17088636,10.3870227 L6.29331818,10.9122273 Z" fill="#35A211" fill-rule="nonzero"></path>
                    <path d="M2.29336364,7.95211364 C2.91572727,8.10511364 3.50931818,8.34906818 4.05777273,8.67709091 L4.58270455,7.79938636 C3.94690909,7.41906818 3.25881818,7.13631818 2.53759091,6.95897727 L2.29336364,7.95211364 Z" fill="#35A211" fill-rule="nonzero"></path>
                    <path d="M7.95245455,2.29438636 L6.95931818,2.53868182 C7.13679545,3.25990909 7.41961364,3.948 7.80013636,4.58379545 L8.67770455,4.05859091 C8.34947727,3.51027273 8.10552273,2.91668182 7.95245455,2.29438636 Z" fill="#35A211" fill-rule="nonzero"></path>
                    <path d="M10.3883182,7.17136364 C11.0241136,7.55168182 11.7122045,7.83443182 12.4333636,8.01177273 L12.6775909,7.01863636 C12.0552955,6.86563636 11.4617045,6.62175 10.91325,6.29365909 L10.3883182,7.17136364 Z" fill="#35A211" fill-rule="nonzero"></path>
                    <path d="M9.03204545,4.58911364 L8.21093182,5.19872727 C8.42972727,5.49340909 8.67306818,5.77527273 8.93440909,6.03661364 C9.19629545,6.29836364 9.47863636,6.54204545 9.77345455,6.76077273 L10.3828636,5.93945455 C10.1281364,5.75045455 9.88404545,5.53977273 9.65754545,5.31340909 C9.43152273,5.08745455 9.22111364,4.84370455 9.03204545,4.58911364 Z" fill="#35A211" fill-rule="nonzero"></path>
                </g>
            </g>
        </g>
    </g>
</svg>