<?xml version="1.0" encoding="UTF-8"?>
<svg width="20px" height="20px" viewBox="0 0 20 20" version="1.1" xmlns="http://www.w3.org/2000/svg" xmlns:xlink="http://www.w3.org/1999/xlink">
    <!-- Generator: Sketch 45.2 (43514) - http://www.bohemiancoding.com/sketch -->
    <title>ic-ball-active</title>
    <desc>Created with Sketch.</desc>
    <defs></defs>
    <g id="Symbols" stroke="none" stroke-width="1" fill="none" fill-rule="evenodd">
        <g id="ic-ball-active" fill-rule="nonzero" fill="#35A211">
            <g id="Shape">
                <path d="M17.0379091,2.92327273 C15.1528182,1.03818182 12.6464545,0 9.98072727,0 C7.31481818,0 4.80845455,1.03818182 2.92327273,2.92336364 C1.03809091,4.80827273 -9.09090909e-05,7.31463636 0,9.98045455 C0,12.6462727 1.03827273,15.1526364 2.92345455,17.0378182 C4.80854545,18.9228182 7.31490909,19.9609091 9.98081818,19.9609091 C12.6465455,19.9609091 15.1528182,18.9228182 17.0377273,17.0379091 C18.9227273,15.1527273 19.9608182,12.6462727 19.9609091,9.98036364 C19.961,7.31427273 18.9229091,4.808 17.0379091,2.92327273 Z M16.0734545,16.0736364 C14.6794545,17.4677273 12.8916364,18.3246364 10.961,18.5418182 C10.9468182,18.208 10.9178182,17.8746364 10.8705455,17.5450909 L9.52072727,17.7388182 C9.561,18.0198182 9.586,18.3039091 9.59845455,18.5885455 C7.44036364,18.495 5.42472727,17.6105455 3.88772727,16.0735455 C2.35054545,14.5363636 1.466,12.5207273 1.37236364,10.3626364 C1.657,10.3751818 1.94118182,10.4001818 2.22227273,10.4404545 L2.416,9.09063636 C2.08636364,9.04327273 1.75290909,9.01436364 1.419,9.00009091 C1.63627273,7.06936364 2.49327273,5.28154545 3.88754545,3.88745455 C5.28163636,2.49345455 7.06954545,1.63645455 9.00018182,1.41909091 C9.01445455,1.75281818 9.04345455,2.08609091 9.09072727,2.41581818 L10.4405455,2.22209091 C10.4002727,1.941 10.3752727,1.65681818 10.3628182,1.37227273 C12.5208182,1.46581818 14.5365455,2.35027273 16.0737273,3.88745455 C17.6108182,5.42436364 18.4951818,7.43990909 18.5886364,9.59818182 C18.3041818,9.58563636 18.02,9.56072727 17.739,9.52045455 L17.5454545,10.8702727 C17.875,10.9175455 18.2080909,10.9473636 18.5417273,10.9616364 C18.3242727,12.892 17.4673636,14.6796364 16.0734545,16.0736364 Z"></path>
                <path d="M8.04872727,11.9122727 C7.69981818,11.5633636 7.32336364,11.2384545 6.93,10.9466364 L6.11745455,12.0417273 C6.45727273,12.2939091 6.78254545,12.5747273 7.08445455,12.8765455 C7.38590909,13.178 7.66645455,13.5029091 7.91836364,13.8421818 L9.01336364,13.0294545 C8.72181818,12.6366364 8.39727273,12.2607273 8.04872727,11.9122727 Z"></path>
                <path d="M8.39109091,14.5496364 C8.82863636,15.2807273 9.154,16.0720909 9.35818182,16.9019091 L10.6823636,16.5760909 C10.4456364,15.6143636 10.0684545,14.697 9.56118182,13.8493636 L8.39109091,14.5496364 Z"></path>
                <path d="M3.05781818,10.6028182 C3.88763636,10.8068182 4.67909091,11.1320909 5.41036364,11.5694545 L6.11027273,10.3991818 C5.26254545,9.89209091 4.34509091,9.51509091 3.38345455,9.27863636 L3.05781818,10.6028182 Z"></path>
                <path d="M10.6032727,3.05918182 L9.27909091,3.38490909 C9.51572727,4.34654545 9.89281818,5.264 10.4001818,6.11172727 L11.5702727,5.41145455 C11.1326364,4.68036364 10.8073636,3.88890909 10.6032727,3.05918182 Z"></path>
                <path d="M13.8510909,9.56181818 C14.6988182,10.0689091 15.6162727,10.4459091 16.5778182,10.6823636 L16.9034545,9.35818182 C16.0737273,9.15418182 15.2822727,8.829 14.551,8.39154545 L13.8510909,9.56181818 Z"></path>
                <path d="M12.0427273,6.11881818 L10.9479091,6.93163636 C11.2396364,7.32454545 11.5640909,7.70036364 11.9125455,8.04881818 C12.2617273,8.39781818 12.6381818,8.72272727 13.0312727,9.01436364 L13.8438182,7.91927273 C13.5041818,7.66727273 13.1787273,7.38636364 12.8767273,7.08454545 C12.5753636,6.78327273 12.2948182,6.45827273 12.0427273,6.11881818 Z"></path>
            </g>
        </g>
    </g>
</svg>