<?xml version="1.0" encoding="UTF-8"?>
<svg width="16px" height="16px" viewBox="0 0 16 16" version="1.1" xmlns="http://www.w3.org/2000/svg" xmlns:xlink="http://www.w3.org/1999/xlink">
    <!-- Generator: Sketch 45.2 (43514) - http://www.bohemiancoding.com/sketch -->
    <title>ic-calendar</title>
    <desc>Created with Sketch.</desc>
    <defs></defs>
    <g id="Page-1" stroke="none" stroke-width="1" fill="none" fill-rule="evenodd">
        <g id="06-4-tournament-match" transform="translate(-527.000000, -339.000000)" fill="#55595C">
            <g id="ic-calendar" transform="translate(527.000000, 339.000000)">
                <g>
                    <path d="M14.3866406,15.9851562 L1.59851562,15.9851562 C0.717200677,15.9851562 0,15.2679556 0,14.3866406 L0,2.66419271 C0,1.78287776 0.597844844,1.06567708 1.33209635,1.06567708 L2.13135417,1.06567708 L2.13135417,2.13135417 L1.33209635,2.13135417 C1.24044813,2.13135417 1.06567708,2.3391612 1.06567708,2.66419271 L1.06567708,14.3866406 C1.06567708,14.6802347 1.30492159,14.9194792 1.59851562,14.9194792 L14.3866406,14.9194792 C14.6802347,14.9194792 14.9194792,14.6802347 14.9194792,14.3866406 L14.9194792,2.66419271 C14.9194792,2.3391612 14.7447081,2.13135417 14.6530599,2.13135417 L13.8538021,2.13135417 L13.8538021,1.06567708 L14.6530599,1.06567708 C15.3873114,1.06567708 15.9851562,1.78287776 15.9851562,2.66419271 L15.9851562,14.3866406 C15.9851562,15.2679556 15.2679556,15.9851562 14.3866406,15.9851562" id="Fill-133"></path>
                    <path d="M3.72986979,3.19703125 C3.43574292,3.19703125 3.19703125,2.95831958 3.19703125,2.66419271 L3.19703125,0.532838542 C3.19703125,0.238711667 3.43574292,0 3.72986979,0 C4.02399667,0 4.26270833,0.238711667 4.26270833,0.532838542 L4.26270833,2.66419271 C4.26270833,2.95831958 4.02399667,3.19703125 3.72986979,3.19703125" id="Fill-134"></path>
                    <path d="M12.2552865,3.19703125 C11.9611596,3.19703125 11.7224479,2.95831958 11.7224479,2.66419271 L11.7224479,0.532838542 C11.7224479,0.238711667 11.9611596,0 12.2552865,0 C12.5494133,0 12.788125,0.238711667 12.788125,0.532838542 L12.788125,2.66419271 C12.788125,2.95831958 12.5494133,3.19703125 12.2552865,3.19703125" id="Fill-135"></path>
                    <polygon id="Fill-136" points="5.32838542 1.06567708 10.6567708 1.06567708 10.6567708 2.13135417 5.32838542 2.13135417"></polygon>
                    <polygon id="Fill-137" points="1.06567708 4.26270833 14.9194792 4.26270833 14.9194792 5.32838542 1.06567708 5.32838542"></polygon>
                    <polygon id="Fill-138" points="12.788125 6.3940625 13.8538021 6.3940625 13.8538021 7.45973958 12.788125 7.45973958"></polygon>
                    <polygon id="Fill-139" points="10.6567708 6.3940625 11.7224479 6.3940625 11.7224479 7.45973958 10.6567708 7.45973958"></polygon>
                    <polygon id="Fill-140" points="8.52541667 6.3940625 9.59109375 6.3940625 9.59109375 7.45973958 8.52541667 7.45973958"></polygon>
                    <polygon id="Fill-141" points="6.3940625 6.3940625 7.45973958 6.3940625 7.45973958 7.45973958 6.3940625 7.45973958"></polygon>
                    <polygon id="Fill-142" points="4.26270833 6.3940625 5.32838542 6.3940625 5.32838542 7.45973958 4.26270833 7.45973958"></polygon>
                    <polygon id="Fill-143" points="12.788125 8.52541667 13.8538021 8.52541667 13.8538021 9.59109375 12.788125 9.59109375"></polygon>
                    <polygon id="Fill-144" points="10.6567708 8.52541667 11.7224479 8.52541667 11.7224479 9.59109375 10.6567708 9.59109375"></polygon>
                    <polygon id="Fill-145" points="8.52541667 8.52541667 9.59109375 8.52541667 9.59109375 9.59109375 8.52541667 9.59109375"></polygon>
                    <polygon id="Fill-146" points="6.3940625 8.52541667 7.45973958 8.52541667 7.45973958 9.59109375 6.3940625 9.59109375"></polygon>
                    <polygon id="Fill-147" points="4.26270833 8.52541667 5.32838542 8.52541667 5.32838542 9.59109375 4.26270833 9.59109375"></polygon>
                    <polygon id="Fill-148" points="2.13135417 8.52541667 3.19703125 8.52541667 3.19703125 9.59109375 2.13135417 9.59109375"></polygon>
                    <polygon id="Fill-149" points="12.788125 10.6567708 13.8538021 10.6567708 13.8538021 11.7224479 12.788125 11.7224479"></polygon>
                    <polygon id="Fill-150" points="10.6567708 10.6567708 11.7224479 10.6567708 11.7224479 11.7224479 10.6567708 11.7224479"></polygon>
                    <polygon id="Fill-151" points="8.52541667 10.6567708 9.59109375 10.6567708 9.59109375 11.7224479 8.52541667 11.7224479"></polygon>
                    <polygon id="Fill-152" points="6.3940625 10.6567708 7.45973958 10.6567708 7.45973958 11.7224479 6.3940625 11.7224479"></polygon>
                    <polygon id="Fill-153" points="4.26270833 10.6567708 5.32838542 10.6567708 5.32838542 11.7224479 4.26270833 11.7224479"></polygon>
                    <polygon id="Fill-154" points="2.13135417 10.6567708 3.19703125 10.6567708 3.19703125 11.7224479 2.13135417 11.7224479"></polygon>
                    <polygon id="Fill-155" points="10.6567708 12.788125 11.7224479 12.788125 11.7224479 13.8538021 10.6567708 13.8538021"></polygon>
                    <polygon id="Fill-156" points="8.52541667 12.788125 9.59109375 12.788125 9.59109375 13.8538021 8.52541667 13.8538021"></polygon>
                    <polygon id="Fill-157" points="6.3940625 12.788125 7.45973958 12.788125 7.45973958 13.8538021 6.3940625 13.8538021"></polygon>
                    <polygon id="Fill-158" points="4.26270833 12.788125 5.32838542 12.788125 5.32838542 13.8538021 4.26270833 13.8538021"></polygon>
                    <polygon id="Fill-159" points="2.13135417 12.788125 3.19703125 12.788125 3.19703125 13.8538021 2.13135417 13.8538021"></polygon>
                </g>
            </g>
        </g>
    </g>
</svg>