<?xml version="1.0" encoding="UTF-8"?>
<svg width="16px" height="16px" viewBox="0 0 16 16" version="1.1" xmlns="http://www.w3.org/2000/svg" xmlns:xlink="http://www.w3.org/1999/xlink">
    <!-- Generator: Sketch 45.2 (43514) - http://www.bohemiancoding.com/sketch -->
    <title>ic-clock</title>
    <desc>Created with Sketch.</desc>
    <defs></defs>
    <g id="Page-1" stroke="none" stroke-width="1" fill="none" fill-rule="evenodd">
        <g id="06-4-tournament-match" transform="translate(-854.000000, -339.000000)">
            <g id="ic-clock" transform="translate(854.000000, 339.000000)">
                <g>
                    <rect id="16X16" x="0" y="0" width="16" height="16"></rect>
                    <path d="M8,15 C4.14,15 1,11.859 1,8 C1,4.14 4.14,1 8,1 C11.859,1 15,4.14 15,8 C15,11.859 11.859,15 8,15 M8,0 C3.589,0 0,3.589 0,8 C0,12.411 3.589,16 8,16 C12.411,16 16,12.411 16,8 C16,3.589 12.411,0 8,0" id="Fill-1" fill="#55595C"></path>
                    <path d="M10.8532,10.1462 L8.5002,7.7932 L8.5002,3.5002 C8.5002,3.2242 8.2762,3.0002 8.0002,3.0002 C7.7242,3.0002 7.5002,3.2242 7.5002,3.5002 L7.5002,8.0002 C7.5002,8.1382 7.5562,8.2632 7.6462,8.3532 L10.1462,10.8532 C10.2372,10.9442 10.3622,11.0002 10.5002,11.0002 C10.7762,11.0002 11.0002,10.7762 11.0002,10.5002 C11.0002,10.3622 10.9442,10.2372 10.8532,10.1462" id="Fill-3" fill="#55595C"></path>
                </g>
            </g>
        </g>
    </g>
</svg>