<?xml version="1.0" encoding="UTF-8"?>
<svg width="13px" height="15px" viewBox="0 0 13 15" version="1.1" xmlns="http://www.w3.org/2000/svg" xmlns:xlink="http://www.w3.org/1999/xlink">
    <!-- Generator: Sketch 45.2 (43514) - http://www.bohemiancoding.com/sketch -->
    <title>ic-copy</title>
    <desc>Created with Sketch.</desc>
    <defs></defs>
    <g id="Page-1" stroke="none" stroke-width="1" fill="none" fill-rule="evenodd">
        <g id="06-0-tournament" transform="translate(-927.000000, -186.000000)" fill="#ABABAB">
            <g id="ic-copy" transform="translate(927.000000, 186.000000)">
                <g id="Shape">
                    <path d="M11.122379,0 L3.13451613,0 C2.55090726,0 2.07604839,0.474858871 2.07604839,1.05846774 L2.07604839,2.32893145 L1.07987903,2.32893145 C0.496270161,2.32893145 0.0214112903,2.80372984 0.0214112903,3.38739919 L0.0214112903,13.9260484 C0.0214112903,14.5096573 0.496270161,14.9845161 1.07987903,14.9845161 L9.06768145,14.9845161 C9.65129032,14.9845161 10.1261492,14.5096573 10.1261492,13.9260484 L10.1261492,12.6556452 L11.122379,12.6556452 C11.7059879,12.6556452 12.1808468,12.1807863 12.1808468,11.5971774 L12.1808468,1.05846774 C12.1808468,0.474858871 11.7060484,0 11.122379,0 Z M9.21889113,13.9260484 C9.21889113,14.008004 9.1496371,14.0772581 9.06768145,14.0772581 L1.07987903,14.0772581 C0.997923387,14.0772581 0.928669355,14.008004 0.928669355,13.9260484 L0.928669355,3.38739919 C0.928669355,3.30538306 0.997923387,3.23618952 1.07987903,3.23618952 L9.06768145,3.23618952 C9.1496371,3.23618952 9.21889113,3.30538306 9.21889113,3.38739919 L9.21889113,13.9260484 Z M11.2735887,11.5971774 C11.2735887,11.6791331 11.2043347,11.7483871 11.122379,11.7483871 L10.1261492,11.7483871 L10.1261492,3.38739919 C10.1261492,2.80372984 9.65129032,2.32893145 9.06768145,2.32893145 L2.98330645,2.32893145 L2.98330645,1.05846774 C2.98330645,0.976512097 3.0525,0.907258065 3.13451613,0.907258065 L11.122379,0.907258065 C11.2043347,0.907258065 11.2735887,0.976512097 11.2735887,1.05846774 L11.2735887,11.5971774 Z" fill-rule="nonzero"></path>
                    <path d="M7.65441532,4.66457661 L2.49314516,4.66457661 C2.24256048,4.66457661 2.03951613,4.86762097 2.03951613,5.11820565 C2.03951613,5.36879032 2.24256048,5.57183468 2.49314516,5.57183468 L7.65441532,5.57183468 C7.905,5.57183468 8.10804435,5.36879032 8.10804435,5.11820565 C8.10804435,4.86768145 7.905,4.66457661 7.65441532,4.66457661 Z" fill-rule="nonzero"></path>
                    <path d="M7.65441532,6.70754032 L2.49314516,6.70754032 C2.24256048,6.70754032 2.03951613,6.91058468 2.03951613,7.16116935 C2.03951613,7.41175403 2.24256048,7.61479839 2.49314516,7.61479839 L7.65441532,7.61479839 C7.905,7.61479839 8.10804435,7.41175403 8.10804435,7.16116935 C8.10804435,6.91058468 7.905,6.70754032 7.65441532,6.70754032 Z" fill-rule="nonzero"></path>
                    <path d="M7.65441532,8.75056452 L2.49314516,8.75056452 C2.24256048,8.75056452 2.03951613,8.95360887 2.03951613,9.20419355 C2.03951613,9.45477823 2.24256048,9.65782258 2.49314516,9.65782258 L7.65441532,9.65782258 C7.905,9.65782258 8.10804435,9.45477823 8.10804435,9.20419355 C8.10804435,8.95360887 7.905,8.75056452 7.65441532,8.75056452 Z" fill-rule="nonzero"></path>
                    <path d="M7.65441532,10.7935282 L2.49314516,10.7935282 C2.24256048,10.7935282 2.03951613,10.9965726 2.03951613,11.2471573 C2.03951613,11.4977419 2.24256048,11.7007863 2.49314516,11.7007863 L7.65441532,11.7007863 C7.905,11.7007863 8.10804435,11.4977419 8.10804435,11.2471573 C8.10804435,10.9966331 7.905,10.7935282 7.65441532,10.7935282 Z" fill-rule="nonzero"></path>
                </g>
            </g>
        </g>
    </g>
</svg>