<?xml version="1.0" encoding="UTF-8"?>
<svg width="20px" height="20px" viewBox="0 0 20 20" version="1.1" xmlns="http://www.w3.org/2000/svg" xmlns:xlink="http://www.w3.org/1999/xlink">
    <!-- Generator: Sketch 45.2 (43514) - http://www.bohemiancoding.com/sketch -->
    <title>ic-donate-active</title>
    <desc>Created with Sketch.</desc>
    <defs></defs>
    <g id="Symbols" stroke="none" stroke-width="1" fill="none" fill-rule="evenodd">
        <g id="ic-donate-active" fill="#35A211">
            <g>
                <path d="M7.66667969,16 L9.66667969,16 C9.85101562,16 10,15.8506641 10,15.6666797 C10,15.4826953 9.85101562,15.3333594 9.66667969,15.3333594 L7.66667969,15.3333594 C7.48234375,15.3333594 7.33335938,15.4826953 7.33335938,15.6666797 C7.33335938,15.8506641 7.48234375,16 7.66667969,16 Z" id="Shape" fill-rule="nonzero"></path>
                <path d="M7.66667969,18.6666797 L10.4113281,18.6666797 C10.5956641,18.6666797 10.7446484,18.5173438 10.7446484,18.3333594 C10.7446484,18.149375 10.5956641,18.0000391 10.4113281,18.0000391 L7.66667969,18.0000391 C7.48234375,18.0000391 7.33335938,18.149375 7.33335938,18.3333594 C7.33335938,18.5173438 7.48234375,18.6666797 7.66667969,18.6666797 Z" id="Shape" fill-rule="nonzero"></path>
                <path d="M4.65964844,14.6676563 C4.7453125,14.6676563 4.83097656,14.635 4.89597656,14.5693359 C5.02597656,14.4386719 5.0253125,14.2276562 4.89496094,14.0980078 C2.24734375,11.465 0.666679688,8.43765625 0.666679688,6 C0.666679688,3.05933594 3.05933594,0.666679688 6,0.666679688 C7.00167969,0.666679688 7.97832031,0.946015625 8.82398438,1.4746875 C8.98,1.57234375 9.18597656,1.5246875 9.28332031,1.36867188 C9.38097656,1.21265625 9.33332031,1.00699219 9.17730469,0.909335938 C8.22566406,0.314335937 7.12699219,0 6,0 C2.69167969,0 0,2.69167969 0,6 C0,8.61132812 1.65398438,11.8153125 4.42464844,14.5706641 C4.49,14.6353516 4.575,14.6676563 4.65964844,14.6676563 Z" id="Shape" fill-rule="nonzero"></path>
                <path d="M8.69734375,3.97035156 C8.8646875,4.04601562 9.06234375,3.97167969 9.13835938,3.80402344 C10.0006641,1.89800781 11.9089844,0.666679688 14,0.666679688 C16.9406641,0.666679688 19.3333203,3.05933594 19.3333203,6 C19.3333203,7.49964844 18.7956641,9.23699219 17.9953125,10.3230078 C17.8859766,10.4713281 17.9176563,10.68 18.0659766,10.7893359 C18.1253125,10.8330078 18.1946484,10.8539844 18.2633203,10.8539844 C18.3656641,10.8539844 18.4666406,10.8073047 18.5319922,10.7186328 C19.41,9.52699219 20,7.63066406 20,6 C20,2.69167969 17.3083203,0 14,0 C11.6476563,0 9.50101563,1.38535156 8.53101563,3.52933594 C8.455,3.69699219 8.52964844,3.89464844 8.69734375,3.97035156 Z" id="Shape" fill-rule="nonzero"></path>
                <path d="M5,19.3333203 L0.333320312,19.3333203 C0.148984375,19.3333203 0,19.4826562 0,19.6666406 C0,19.850625 0.148984375,20 0.333320312,20 L5,20 C5.18433594,20 5.33332031,19.8506641 5.33332031,19.6666797 C5.33332031,19.4826953 5.18433594,19.3333203 5,19.3333203 Z" id="Shape" fill-rule="nonzero"></path>
                <path d="M15.0906641,2.15035156 C14.9146484,2.10101563 14.7289844,2.20300781 14.6793359,2.38035156 C14.6293359,2.55769531 14.7319922,2.74203125 14.9093359,2.79203125 C16.0139844,3.104375 16.895,3.98503906 17.2076563,5.0896875 C17.2489844,5.23636719 17.3826563,5.33234375 17.5280078,5.33234375 C17.5583594,5.33234375 17.5890234,5.32800781 17.6190234,5.31933594 C17.7963672,5.26933594 17.8990234,5.085 17.8490234,4.90800781 C17.4736719,3.58234375 16.4166797,2.52566406 15.0906641,2.15035156 Z" id="Shape" fill-rule="nonzero"></path>
                <path d="M7.66667969,17.3333203 L9.83335937,17.3333203 C10.0176953,17.3333203 10.1666797,17.1839844 10.1666797,17 C10.1666797,16.8160156 10.0176953,16.6666797 9.83335937,16.6666797 L7.66667969,16.6666797 C7.48234375,16.6666797 7.33335938,16.8160156 7.33335938,17 C7.33335938,17.1839844 7.48234375,17.3333203 7.66667969,17.3333203 Z" id="Shape" fill-rule="nonzero"></path>
                <path d="M5,18 L0.333320312,18 C0.148984375,18 0,18.1493359 0,18.3333203 C0,18.5173047 0.148984375,18.6666406 0.333320312,18.6666406 L5,18.6666406 C5.18433594,18.6666406 5.33332031,18.5173047 5.33332031,18.3333203 C5.33332031,18.1493359 5.18433594,18 5,18 Z" id="Shape" fill-rule="nonzero"></path>
                <path d="M15.3333203,19.3333203 C13.1276563,19.3333203 11.3333203,17.5389844 11.3333203,15.3333203 C11.3333203,13.1276563 13.1276563,11.3333203 15.3333203,11.3333203 C17.5389844,11.3333203 19.3333203,13.1276563 19.3333203,15.3333203 C19.3333203,17.5389844 17.5389844,19.3333203 15.3333203,19.3333203 Z M15.3333203,13.6666797 C15.7009766,13.6666797 16,13.9656641 16,14.3333594 C16,14.5173438 16.1489844,14.6666797 16.3333203,14.6666797 C16.5176563,14.6666797 16.6666406,14.5173438 16.6666406,14.3333594 C16.6666406,13.7140234 16.2403125,13.1963672 15.6666406,13.0473438 L15.6666406,13 C15.6666406,12.8160156 15.5176562,12.6666797 15.3333203,12.6666797 C15.1489844,12.6666797 15,12.8160156 15,13 L15,13.0473438 C14.4263281,13.1963281 14,13.7140234 14,14.3333594 C14,15.0687109 14.5980078,15.6666797 15.3333203,15.6666797 C15.7009766,15.6666797 16,15.9656641 16,16.3333594 C16,16.7010547 15.7010156,17.0000391 15.3333203,17.0000391 C14.9656641,17.0000391 14.6666406,16.7010547 14.6666406,16.3333594 C14.6666406,16.149375 14.5176562,16.0000391 14.3333203,16.0000391 C14.1489844,16.0000391 14,16.149375 14,16.3333594 C14,16.9526953 14.4263281,17.4703516 15,17.619375 L15,17.6667188 C15,17.8507031 15.1489844,18.0000391 15.3333203,18.0000391 C15.5176562,18.0000391 15.6666406,17.8507031 15.6666406,17.6667188 L15.6666406,17.619375 C16.2403125,17.4703906 16.6666406,16.9526953 16.6666406,16.3333594 C16.6666406,15.5980078 16.0686328,15.0000391 15.3333203,15.0000391 C14.9656641,15.0000391 14.6666406,14.7010547 14.6666406,14.3333594 C14.6666406,13.9656641 14.9656641,13.6666797 15.3333203,13.6666797 Z" id="Combined-Shape"></path>
                <path d="M11.6666797,19.3333203 L7.66667969,19.3333203 C7.48234375,19.3333203 7.33335938,19.4826562 7.33335938,19.6666406 C7.33335938,19.850625 7.48234375,19.9999609 7.66667969,19.9999609 L11.6666797,19.9999609 C11.8510156,19.9999609 12,19.850625 12,19.6666406 C12,19.4826562 11.8510156,19.3333203 11.6666797,19.3333203 Z" id="Shape" fill-rule="nonzero"></path>
                <path d="M6.33332031,15.3333203 C6.14898438,15.3333203 6,15.4826562 6,15.6666406 L6,19.6666406 C6,19.850625 6.14898438,19.9999609 6.33332031,19.9999609 C6.51765625,19.9999609 6.66664062,19.850625 6.66664062,19.6666406 L6.66664062,15.6666406 C6.66667969,15.4826562 6.51765625,15.3333203 6.33332031,15.3333203 Z" id="Shape" fill-rule="nonzero"></path>
                <path d="M5,15.3333203 L0.333320312,15.3333203 C0.148984375,15.3333203 0,15.4826562 0,15.6666406 C0,15.850625 0.148984375,15.9999609 0.333320312,15.9999609 L5,15.9999609 C5.18433594,15.9999609 5.33332031,15.850625 5.33332031,15.6666406 C5.33332031,15.4826562 5.18433594,15.3333203 5,15.3333203 Z" id="Shape" fill-rule="nonzero"></path>
                <path d="M5,16.6666797 L0.333320312,16.6666797 C0.148984375,16.6666797 0,16.8160156 0,17 C0,17.1839844 0.148984375,17.3333203 0.333320312,17.3333203 L5,17.3333203 C5.18433594,17.3333203 5.33332031,17.1839844 5.33332031,17 C5.33332031,16.8160156 5.18433594,16.6666797 5,16.6666797 Z" id="Shape" fill-rule="nonzero"></path>
            </g>
        </g>
    </g>
</svg>