<?xml version="1.0" encoding="UTF-8"?>
<svg width="14px" height="14px" viewBox="0 0 14 14" version="1.1" xmlns="http://www.w3.org/2000/svg" xmlns:xlink="http://www.w3.org/1999/xlink">
    <!-- Generator: Sketch 45.2 (43514) - http://www.bohemiancoding.com/sketch -->
    <title>ic-dashboard</title>
    <desc>Created with Sketch.</desc>
    <defs></defs>
    <g id="Symbols" stroke="none" stroke-width="1" fill="none" fill-rule="evenodd">
        <g id="nav-left" transform="translate(-1.000000, -14.000000)">
            <g id="ic-dashboard" transform="translate(1.000000, 14.000000)">
                <g>
                    <polygon id="Fill-251" fill="#FFFFFF" points="0 0 3.5 0 3.5 3.5 0 3.5"></polygon>
                    <polygon id="Fill-252" fill="#FFFFFF" points="5.25 0 8.75 0 8.75 3.5 5.25 3.5"></polygon>
                    <polygon id="Fill-253" fill="#FFFFFF" points="10.5 0 14 0 14 3.5 10.5 3.5"></polygon>
                    <polygon id="Fill-254" fill="#FFFFFF" points="0 5.25 3.5 5.25 3.5 8.75 0 8.75"></polygon>
                    <polygon id="Fill-255" fill="#35A211" points="5.25 5.25 8.75 5.25 8.75 8.75 5.25 8.75"></polygon>
                    <polygon id="Fill-256" fill="#FFFFFF" points="10.5 5.25 14 5.25 14 8.75 10.5 8.75"></polygon>
                    <polygon id="Fill-257" fill="#FFFFFF" points="0 10.5 3.5 10.5 3.5 14 0 14"></polygon>
                    <polygon id="Fill-258" fill="#35A211" points="5.25 10.5 8.75 10.5 8.75 14 5.25 14"></polygon>
                    <polygon id="Fill-259" fill="#35A211" points="10.5 10.5 14 10.5 14 14 10.5 14"></polygon>
                </g>
            </g>
        </g>
    </g>
</svg>