<?xml version="1.0" encoding="UTF-8"?>
<svg width="20px" height="19px" viewBox="0 0 20 19" version="1.1" xmlns="http://www.w3.org/2000/svg" xmlns:xlink="http://www.w3.org/1999/xlink">
    <!-- Generator: Sketch 45.2 (43514) - http://www.bohemiancoding.com/sketch -->
    <title>charity</title>
    <desc>Created with Sketch.</desc>
    <defs></defs>
    <g id="Symbols" stroke="none" stroke-width="1" fill="none" fill-rule="evenodd">
        <g id="nav-left" transform="translate(0.000000, -274.000000)">
            <g id="charity" transform="translate(1.000000, 275.000000)">
                <path d="M6.90001172,14.4 L8.70001172,14.4 C8.86591406,14.4 9,14.2655977 9,14.1000117 C9,13.9344258 8.86591406,13.8000234 8.70001172,13.8000234 L6.90001172,13.8000234 C6.73410937,13.8000234 6.60002344,13.9344258 6.60002344,14.1000117 C6.60002344,14.2655977 6.73410937,14.4 6.90001172,14.4 Z" id="Shape" fill="#FFFFFF" fill-rule="nonzero"></path>
                <path d="M6.90001172,16.8000117 L9.37019531,16.8000117 C9.53609766,16.8000117 9.67018359,16.6656094 9.67018359,16.5000234 C9.67018359,16.3344375 9.53609766,16.2000352 9.37019531,16.2000352 L6.90001172,16.2000352 C6.73410937,16.2000352 6.60002344,16.3344375 6.60002344,16.5000234 C6.60002344,16.6656094 6.73410937,16.8000117 6.90001172,16.8000117 Z" id="Shape" fill="#FFFFFF" fill-rule="nonzero"></path>
                <path d="M4.19368359,13.2008906 C4.27078125,13.2008906 4.34787891,13.1715 4.40637891,13.1124023 C4.52337891,12.9948047 4.52278125,12.8048906 4.40546484,12.688207 C2.02260938,10.3185 0.600011719,7.59389062 0.600011719,5.4 C0.600011719,2.75340234 2.75340234,0.600011719 5.4,0.600011719 C6.30151172,0.600011719 7.18048828,0.851414063 7.94158594,1.32721875 C8.082,1.41510937 8.26737891,1.37221875 8.35498828,1.23180469 C8.44287891,1.09139063 8.39998828,0.906292969 8.25957422,0.818402344 C7.40309766,0.282902344 6.41429297,0 5.4,0 C2.42251172,0 0,2.42251172 0,5.4 C0,7.75019531 1.48858594,10.6337812 3.98218359,13.1135977 C4.041,13.1718164 4.1175,13.2008906 4.19368359,13.2008906 Z" id="Shape" stroke="#FFFFFF" stroke-width="0.4" fill="#FFFFFF" fill-rule="nonzero"></path>
                <path d="M7.82760938,3.57331641 C7.97821875,3.64141406 8.15610938,3.57451172 8.22452344,3.42362109 C9.00059766,1.70820703 10.7180859,0.600011719 12.6,0.600011719 C15.2465977,0.600011719 17.3999883,2.75340234 17.3999883,5.4 C17.3999883,6.74968359 16.9160977,8.31329297 16.1957813,9.29070703 C16.0973789,9.42419531 16.1258906,9.612 16.2593789,9.71040234 C16.3127813,9.74970703 16.3751836,9.76858594 16.4369883,9.76858594 C16.5290977,9.76858594 16.6199766,9.72657422 16.678793,9.64676953 C17.469,8.57429297 18,6.86759766 18,5.4 C18,2.42251172 15.5774883,0 12.6,0 C10.4828906,0 8.55091406,1.24681641 7.67791406,3.17640234 C7.6095,3.32729297 7.67668359,3.50518359 7.82760938,3.57331641 Z" id="Shape" stroke="#FFFFFF" stroke-width="0.4" fill="#FFFFFF" fill-rule="nonzero"></path>
                <path d="M4.5,17.3999883 L0.299988281,17.3999883 C0.134085937,17.3999883 0,17.5343906 0,17.6999766 C0,17.8655625 0.134085937,18 0.299988281,18 L4.5,18 C4.66590234,18 4.79998828,17.8655977 4.79998828,17.7000117 C4.79998828,17.5344258 4.66590234,17.3999883 4.5,17.3999883 Z" id="Shape" fill="#FFFFFF" fill-rule="nonzero"></path>
                <path d="M13.5815977,1.93531641 C13.4231836,1.89091406 13.2560859,1.98270703 13.2114023,2.14231641 C13.1664023,2.30192578 13.258793,2.46782812 13.4184023,2.51282812 C14.4125859,2.7939375 15.2055,3.58653516 15.4868906,4.58071875 C15.5240859,4.71273047 15.6443906,4.79910937 15.775207,4.79910937 C15.8025234,4.79910937 15.8301211,4.79520703 15.8571211,4.78740234 C16.0167305,4.74240234 16.1091211,4.5765 16.0641211,4.41720703 C15.7263047,3.22410937 14.7750117,2.27309766 13.5815977,1.93531641 Z" id="Shape" stroke="#FFFFFF" stroke-width="0.4" fill="#FFFFFF" fill-rule="nonzero"></path>
                <path d="M6.90001172,15.5999883 L8.85002344,15.5999883 C9.01592578,15.5999883 9.15001172,15.4655859 9.15001172,15.3 C9.15001172,15.1344141 9.01592578,15.0000117 8.85002344,15.0000117 L6.90001172,15.0000117 C6.73410937,15.0000117 6.60002344,15.1344141 6.60002344,15.3 C6.60002344,15.4655859 6.73410937,15.5999883 6.90001172,15.5999883 Z" id="Shape" fill="#FFFFFF" fill-rule="nonzero"></path>
                <path d="M4.5,16.2 L0.299988281,16.2 C0.134085937,16.2 0,16.3344023 0,16.4999883 C0,16.6655742 0.134085937,16.7999766 0.299988281,16.7999766 L4.5,16.7999766 C4.66590234,16.7999766 4.79998828,16.6655742 4.79998828,16.4999883 C4.79998828,16.3344023 4.66590234,16.2 4.5,16.2 Z" id="Shape" fill="#FFFFFF" fill-rule="nonzero"></path>
                <path d="M13.7999883,17.3999883 C11.8148906,17.3999883 10.1999883,15.7850859 10.1999883,13.7999883 C10.1999883,11.8148906 11.8148906,10.1999883 13.7999883,10.1999883 C15.7850859,10.1999883 17.3999883,11.8148906 17.3999883,13.7999883 C17.3999883,15.7850859 15.7850859,17.3999883 13.7999883,17.3999883 Z M13.7999883,12.3000117 C14.1308789,12.3000117 14.4,12.5690977 14.4,12.9000234 C14.4,13.0656094 14.5340859,13.2000117 14.6999883,13.2000117 C14.8658906,13.2000117 14.9999766,13.0656094 14.9999766,12.9000234 C14.9999766,12.3426211 14.6162813,11.8767305 14.0999766,11.7426094 L14.0999766,11.7 C14.0999766,11.5344141 13.9658906,11.4000117 13.7999883,11.4000117 C13.6340859,11.4000117 13.5,11.5344141 13.5,11.7 L13.5,11.7426094 C12.9836953,11.8766953 12.6,12.3426211 12.6,12.9000234 C12.6,13.5618398 13.138207,14.1000117 13.7999883,14.1000117 C14.1308789,14.1000117 14.4,14.3690977 14.4,14.7000234 C14.4,15.0309492 14.1309141,15.3000352 13.7999883,15.3000352 C13.4690977,15.3000352 13.1999766,15.0309492 13.1999766,14.7000234 C13.1999766,14.5344375 13.0658906,14.4000352 12.8999883,14.4000352 C12.7340859,14.4000352 12.6,14.5344375 12.6,14.7000234 C12.6,15.2574258 12.9836953,15.7233164 13.5,15.8574375 L13.5,15.9000469 C13.5,16.0656328 13.6340859,16.2000352 13.7999883,16.2000352 C13.9658906,16.2000352 14.0999766,16.0656328 14.0999766,15.9000469 L14.0999766,15.8574375 C14.6162812,15.7233516 14.9999766,15.2574258 14.9999766,14.7000234 C14.9999766,14.038207 14.4617695,13.5000352 13.7999883,13.5000352 C13.4690977,13.5000352 13.1999766,13.2309492 13.1999766,12.9000234 C13.1999766,12.5690977 13.4690977,12.3000117 13.7999883,12.3000117 Z" id="Combined-Shape" fill="#35A211"></path>
                <path d="M10.5000117,17.3999883 L6.90001172,17.3999883 C6.73410937,17.3999883 6.60002344,17.5343906 6.60002344,17.6999766 C6.60002344,17.8655625 6.73410937,17.9999648 6.90001172,17.9999648 L10.5000117,17.9999648 C10.6659141,17.9999648 10.8,17.8655625 10.8,17.6999766 C10.8,17.5343906 10.6659141,17.3999883 10.5000117,17.3999883 Z" id="Shape" fill="#FFFFFF" fill-rule="nonzero"></path>
                <path d="M5.69998828,13.7999883 C5.53408594,13.7999883 5.4,13.9343906 5.4,14.0999766 L5.4,17.6999766 C5.4,17.8655625 5.53408594,17.9999648 5.69998828,17.9999648 C5.86589062,17.9999648 5.99997656,17.8655625 5.99997656,17.6999766 L5.99997656,14.0999766 C6.00001172,13.9343906 5.86589062,13.7999883 5.69998828,13.7999883 Z" id="Shape" fill="#FFFFFF" fill-rule="nonzero"></path>
                <path d="M4.5,13.7999883 L0.299988281,13.7999883 C0.134085937,13.7999883 0,13.9343906 0,14.0999766 C0,14.2655625 0.134085937,14.3999648 0.299988281,14.3999648 L4.5,14.3999648 C4.66590234,14.3999648 4.79998828,14.2655625 4.79998828,14.0999766 C4.79998828,13.9343906 4.66590234,13.7999883 4.5,13.7999883 Z" id="Shape" fill="#FFFFFF" fill-rule="nonzero"></path>
                <path d="M4.5,15.0000117 L0.299988281,15.0000117 C0.134085937,15.0000117 0,15.1344141 0,15.3 C0,15.4655859 0.134085937,15.5999883 0.299988281,15.5999883 L4.5,15.5999883 C4.66590234,15.5999883 4.79998828,15.4655859 4.79998828,15.3 C4.79998828,15.1344141 4.66590234,15.0000117 4.5,15.0000117 Z" id="Shape" fill="#FFFFFF" fill-rule="nonzero"></path>
            </g>
        </g>
    </g>
</svg>