<?xml version="1.0" encoding="UTF-8"?>
<svg width="14px" height="14px" viewBox="0 0 14 14" version="1.1" xmlns="http://www.w3.org/2000/svg" xmlns:xlink="http://www.w3.org/1999/xlink">
    <!-- Generator: Sketch 45.2 (43514) - http://www.bohemiancoding.com/sketch -->
    <title>ic-edit</title>
    <desc>Created with Sketch.</desc>
    <defs></defs>
    <g id="Page-1" stroke="none" stroke-width="1" fill="none" fill-rule="evenodd">
        <g id="06-0-tournament" transform="translate(-950.000000, -186.000000)" fill="#ABABAB">
            <g id="ic-edit" transform="translate(950.000000, 186.000000)">
                <path d="M0.348551724,13.6514483 L1.52551724,8.94262069 L8.68965517,1.77896552 L12.2210345,5.31034483 L5.05737931,12.4744828 L0.348551724,13.6514483 L0.348551724,13.6514483 Z M2.33655172,9.4022069 L1.58248276,12.4175172 L4.5977931,11.6634483 L10.9513793,5.31034483 L8.68965517,3.04862069 L2.33655172,9.4022069 L2.33655172,9.4022069 Z" id="Fill-168"></path>
                <path d="M4.27289655,12.2075172 C3.9677931,10.9827586 3.01724138,10.0322069 1.79248276,9.72710345 L2.0102069,8.85572414 C3.55744828,9.24144828 4.75855172,10.4425517 5.14427586,11.9897931 L4.27289655,12.2075172" id="Fill-169"></path>
                <polygon id="Fill-170" points="3.54441379 9.82027586 9.82027586 3.54441379 10.4555862 4.17972414 4.17972414 10.4555862"></polygon>
                <path d="M0.965517241,13.0344828 L2.36648276,12.6844828 C2.23710345,12.1674483 1.83255172,11.7628966 1.31551724,11.6335172 L0.965517241,13.0344828" id="Fill-171"></path>
                <path d="M12.5517241,4.97965517 L9.02034483,1.44827586 L10.4271034,0.0415172414 L10.6467586,0.0709655172 C12.3518621,0.298344828 13.7016552,1.64813793 13.9290345,3.35324138 L13.9584828,3.57289655 L12.5517241,4.97965517 L12.5517241,4.97965517 Z M10.29,1.44827586 L12.5517241,3.71 L13.0026207,3.25910345 C12.7651034,2.12655172 11.8734483,1.23489655 10.7408966,0.99737931 L10.29,1.44827586 L10.29,1.44827586 Z" id="Fill-172"></path>
            </g>
        </g>
    </g>
</svg>