<?xml version="1.0" encoding="UTF-8"?>
<svg width="18px" height="18px" viewBox="0 0 18 18" version="1.1" xmlns="http://www.w3.org/2000/svg" xmlns:xlink="http://www.w3.org/1999/xlink">
    <!-- Generator: Sketch 45.2 (43514) - http://www.bohemiancoding.com/sketch -->
    <title>ic-user-admin</title>
    <desc>Created with Sketch.</desc>
    <defs></defs>
    <g id="Symbols" stroke="none" stroke-width="1" fill="none" fill-rule="evenodd">
        <g id="nav-left" transform="translate(0.000000, -125.000000)">
            <g id="ic-user-admin" transform="translate(1.000000, 126.000000)">
                <g>
                    <path d="M10.2,11.4343618 L7.5,9.43436178 C8.4,8.73436178 9,7.73436178 9,6.53436178 L9,5.73436178 C9,3.83436178 7.6,2.13436178 5.7,2.03436178 C3.7,1.93436178 2,3.53436178 2,5.53436178 L2,6.53436178 C2,7.73436178 2.6,8.73436178 3.5,9.43436178 L0.8,11.5343618 C0.3,11.9343618 0,12.5343618 0,13.1343618 L0,15.0343618 C0,15.6343618 0.4,16.0343618 1,16.0343618 L10,16.0343618 C10.6,16.0343618 11,15.6343618 11,15.0343618 L11,13.0343618 C11,12.4343618 10.7,11.8343618 10.2,11.4343618" id="Fill-16" stroke="#FFFFFF"></path>
                    <path d="M15.1,6.43436178 L13.3,5.23436178 C13.7,4.83436178 14,4.23436178 14,3.53436178 L14,2.63436178 C14,1.43436178 13.1,0.234361778 11.9,0.0343617784 C10.7,-0.165638222 9.7,0.534361778 9.2,1.43436178 C10.3,2.43436178 11,3.83436178 11,5.43436178 L11,6.43436178 C11,7.33436178 10.8,8.23436178 10.4,8.93436178 C10.4,8.93436178 11.6,9.83436178 11.6,9.93436178 L15,9.93436178 C15.6,9.93436178 16,9.53436178 16,8.93436178 L16,8.13436178 C16,7.43436178 15.7,6.83436178 15.1,6.43436178" id="Fill-17" stroke="#35A211"></path>
                </g>
            </g>
        </g>
    </g>
</svg>