<?xml version="1.0" encoding="UTF-8"?>
<svg width="17px" height="14px" viewBox="0 0 17 14" version="1.1" xmlns="http://www.w3.org/2000/svg" xmlns:xlink="http://www.w3.org/1999/xlink">
    <!-- Generator: Sketch 45.2 (43514) - http://www.bohemiancoding.com/sketch -->
    <title>ic-hearts</title>
    <desc>Created with Sketch.</desc>
    <defs></defs>
    <g id="Symbols" stroke="none" stroke-width="1" fill="none" fill-rule="evenodd">
        <g id="nav-left" transform="translate(0.000000, -241.000000)">
            <g id="ic-hearts" transform="translate(0.000000, 241.000000)">
                <g id="Shape">
                    <path d="M11.2769775,11.9148273 C11.1302577,11.9148273 10.98554,11.8496955 10.8916,11.7265273 C10.734508,11.5204091 10.7795415,11.2298773 10.9921703,11.0776273 C13.062561,9.59477273 14.4715965,8.29531818 15.0670426,7.31964545 C15.614534,6.4225 15.8481698,5.59459091 15.8481698,4.55136818 C15.8481698,2.04982273 14.0262509,0.930077273 12.2206781,0.930077273 C10.5569672,0.930077273 9.82205513,1.81261818 9.53206193,2.33863636 C9.42909547,2.52540909 9.22913637,2.64154545 9.0101398,2.64170455 C9.01000851,2.64170455 9.00984439,2.64170455 9.00964745,2.64170455 C8.79084783,2.64170455 8.59088873,2.52588636 8.48772533,2.3394 C8.19661613,1.81303182 7.45937364,0.930045455 5.79274149,0.930045455 C4.03939037,0.930045455 2.69833181,1.90603636 2.29286649,3.47712273 C2.22872991,3.72568636 1.96886842,3.87682273 1.71235491,3.81465 C1.45590704,3.75247727 1.29999671,3.50047727 1.36416612,3.25191364 C1.87364824,1.27769091 3.6119335,0.00200454545 5.79274149,0.00200454545 C7.51225186,0.00200454545 8.48513229,0.752436364 9.00922075,1.41651364 C9.53206193,0.752340909 10.5030058,0.00200454545 12.2206124,0.00200454545 C13.4558817,0.00200454545 14.5927798,0.420986364 15.4218945,1.18175909 C16.326995,2.01221364 16.8053935,3.17736364 16.8053935,4.55127273 C16.8053935,5.75619545 16.5233107,6.75563636 15.8909056,7.79201818 C15.0569331,9.15854545 13.0759201,10.7387955 11.5609969,11.8238591 C11.4754595,11.8852682 11.3757754,11.9148273 11.2769775,11.9148273 Z" fill="#FFFFFF" fill-rule="nonzero"></path>
                    <path d="M3.14137972,5.46995909 C4.38406708,5.46995909 4.9416024,6.14517273 5.16102567,6.54175455 C5.18859718,6.59155 5.26336849,6.59148636 5.29084153,6.54165909 C5.50944422,6.14504545 6.06395981,5.46995909 7.3065487,5.46995909 C8.72208317,5.46995909 9.96726509,6.40668636 9.96726509,8.11710455 C9.96726509,8.80924545 9.82175973,9.40220909 9.41790275,10.0639636 C8.59489316,11.4125455 5.88369465,13.1607318 5.32678297,13.5052273 C5.26523942,13.5433136 5.18725143,13.5434091 5.12554376,13.50545 C4.56820538,13.1626091 1.85648169,11.4230773 1.02707158,10.0639318 C0.623148956,9.40227273 0.478661113,8.80927727 0.478661113,8.11713636 C0.478661113,6.40668636 1.72587807,5.46995909 3.14137972,5.46995909 Z" fill-rule="nonzero"></path>
                    <path d="M5.22591719,13.9979 C5.09941648,13.9979 4.97600114,13.9630909 4.86899743,13.8972591 C4.53167313,13.6898045 1.54607244,11.8258636 0.615041619,10.3002773 C0.189685426,9.60320455 0,8.92996364 0,8.11713636 C0,7.18091818 0.328658967,6.38489091 0.950330878,5.81499545 C1.51948563,5.29327273 2.29759303,5.00595455 3.14137972,5.00595455 C4.19920666,5.00595455 4.84982866,5.43683636 5.22545767,5.83577273 C5.60033174,5.43674091 6.24983774,5.00595455 7.3065487,5.00595455 C8.15023691,5.00595455 8.92804891,5.29330455 9.49674414,5.81512273 C10.1176939,6.38485909 10.4459262,7.18091818 10.4459262,8.11710455 C10.4459262,8.92878636 10.2559454,9.60202727 9.82989989,10.3002136 C8.90566347,11.8146636 5.92153983,13.6877682 5.584314,13.8963364 C5.47681793,13.9628045 5.35294308,13.9979 5.22591719,13.9979 Z M3.14137972,5.93396364 C2.05424163,5.93396364 0.957322225,6.60905 0.957322225,8.11713636 C0.957322225,8.76291818 1.10138337,9.27452273 1.43900307,9.82774545 C2.07373863,10.8678818 4.04657866,12.2754864 5.22539202,13.0163409 C6.34299006,12.3086409 8.3763233,10.8592909 9.00587278,9.82774545 C9.34418178,9.27334545 9.48850551,8.76174091 9.48850551,8.11713636 C9.48850551,6.60905 8.3925708,5.93396364 7.30645023,5.93396364 C6.36583503,5.93396364 5.92068643,6.38333182 5.7129154,6.76034545 C5.61684182,6.93470909 5.43017613,7.04311364 5.22585154,7.04311364 C5.02188801,7.04311364 4.83541926,6.93505909 4.73921439,6.76114091 C4.53045867,6.38371364 4.08389867,5.93396364 3.14137972,5.93396364 Z" fill="#35A211" fill-rule="nonzero"></path>
                </g>
            </g>
        </g>
    </g>
</svg>