<?xml version="1.0" encoding="UTF-8"?>
<svg width="11px" height="14px" viewBox="0 0 11 14" version="1.1" xmlns="http://www.w3.org/2000/svg" xmlns:xlink="http://www.w3.org/1999/xlink">
    <!-- Generator: Sketch 45.2 (43514) - http://www.bohemiancoding.com/sketch -->
    <title>ic-lock</title>
    <desc>Created with Sketch.</desc>
    <defs></defs>
    <g id="Page-1" stroke="none" stroke-width="1" fill="none" fill-rule="evenodd">
        <g id="02-0-admin-user" transform="translate(-958.000000, -196.000000)" fill="#ACACAC">
            <g id="ic-lock" transform="translate(958.000000, 196.000000)">
                <g transform="translate(0.250000, 0.000000)">
                    <path d="M9.30066667,6.06666667 L8.43266667,6.06666667 L8.43266667,4.2 C8.43266667,2.38093333 6.9524,0.900666667 5.13333333,0.900666667 C3.31426667,0.900666667 1.834,2.38093333 1.834,4.2 L1.834,6.06666667 L0.966,6.06666667 L0.966,4.2 C0.966,1.90213333 2.83546667,0.0326666667 5.13333333,0.0326666667 C7.4312,0.0326666667 9.30066667,1.90213333 9.30066667,4.2 L9.30066667,6.06666667" id="Fill-66"></path>
                    <path d="M8.86666667,14 L1.4,14 C0.628133333,14 0,13.3718667 0,12.6 L0,7 C0,6.22813333 0.628133333,5.6 1.4,5.6 L8.86666667,5.6 C9.63853333,5.6 10.2666667,6.22813333 10.2666667,7 L10.2666667,12.6 C10.2666667,13.3718667 9.63853333,14 8.86666667,14 L8.86666667,14 Z M1.4,6.53333333 C1.1424,6.53333333 0.933333333,6.74286667 0.933333333,7 L0.933333333,12.6 C0.933333333,12.8571333 1.1424,13.0666667 1.4,13.0666667 L8.86666667,13.0666667 C9.12426667,13.0666667 9.33333333,12.8571333 9.33333333,12.6 L9.33333333,7 C9.33333333,6.74286667 9.12426667,6.53333333 8.86666667,6.53333333 L1.4,6.53333333 L1.4,6.53333333 Z" id="Fill-67"></path>
                    <path d="M6.06666667,8.4 C6.06666667,8.91566667 5.649,9.33333333 5.13333333,9.33333333 C4.61766667,9.33333333 4.2,8.91566667 4.2,8.4 C4.2,7.88433333 4.61766667,7.46666667 5.13333333,7.46666667 C5.649,7.46666667 6.06666667,7.88433333 6.06666667,8.4" id="Fill-68"></path>
                    <polyline id="Fill-69" points="5.36666667 8.4 4.9 8.4 4.43333333 11.2 5.83333333 11.2 5.36666667 8.4"></polyline>
                </g>
            </g>
        </g>
    </g>
</svg>