<?xml version="1.0" encoding="UTF-8"?>
<svg width="12px" height="14px" viewBox="0 0 12 14" version="1.1" xmlns="http://www.w3.org/2000/svg" xmlns:xlink="http://www.w3.org/1999/xlink">
    <!-- Generator: Sketch 45.2 (43514) - http://www.bohemiancoding.com/sketch -->
    <title>ic-permission copy 2</title>
    <desc>Created with Sketch.</desc>
    <defs></defs>
    <g id="Page-1" stroke="none" stroke-width="1" fill="none" fill-rule="evenodd">
        <g id="02-0-admin-user" transform="translate(-884.000000, -198.000000)" fill-rule="nonzero" fill="#ABABAB">
            <g id="ic-permission" transform="translate(883.000000, 198.000000)">
                <path d="M10.507344,3.47453747 C10.507344,1.34793002 8.71292551,-0.382197311 6.50734404,-0.382197311 C4.30176257,-0.382197311 2.50734404,1.34793002 2.50734404,3.47453747 C2.50734404,5.37341249 3.93798485,6.95601876 5.81457049,7.27323442 L5.81457049,13.5733583 C5.81457049,14.1492783 6.21709934,14.6178027 6.71194344,14.6178027 C7.20674661,14.6178027 7.60931638,14.1492783 7.60931638,13.5733583 L7.60931638,13.2692811 L8.6433208,13.2692811 C8.98176912,13.2692811 9.25711898,13.0037905 9.25711898,12.6774608 L9.25711898,11.8541599 C9.25711898,11.5278302 8.98176912,11.2623397 8.6433208,11.2623397 L7.60931638,11.2623397 L7.60931638,7.18240973 C9.28072975,6.71992193 10.507344,5.232796 10.507344,3.47453747 Z M6.50734404,5.64537362 C5.26391168,5.64537362 4.25589139,4.67344694 4.25589139,3.47453747 C4.25589139,2.275628 5.26391168,1.30370132 6.50734404,1.30370132 C7.7507764,1.30370132 8.7587967,2.275628 8.7587967,3.47453747 C8.7587967,4.67344694 7.7507764,5.64537362 6.50734404,5.64537362 Z" id="Shape" transform="translate(6.507344, 7.117803) rotate(45.000000) translate(-6.507344, -7.117803) "></path>
            </g>
        </g>
    </g>
</svg>