<?xml version="1.0" encoding="UTF-8"?>
<svg width="16px" height="15px" viewBox="0 0 16 15" version="1.1" xmlns="http://www.w3.org/2000/svg" xmlns:xlink="http://www.w3.org/1999/xlink">
    <!-- Generator: Sketch 45.2 (43514) - http://www.bohemiancoding.com/sketch -->
    <title>ic-report</title>
    <desc>Created with Sketch.</desc>
    <defs></defs>
    <g id="Symbols" stroke="none" stroke-width="1" fill="none" fill-rule="evenodd">
        <g id="nav-left" transform="translate(-1.000000, -353.000000)">
            <g id="ic-report" transform="translate(1.000000, 353.000000)">
                <g>
                    <path d="M1.06666667,14.9333333 L14.9333333,14.9333333 C15.5221333,14.9333333 16,14.4554667 16,13.8666667 C16,13.2778667 15.5221333,12.8 14.9333333,12.8 L1.06666667,12.8 C0.477866667,12.8 0,13.2778667 0,13.8666667 C0,14.4554667 0.477866667,14.9333333 1.06666667,14.9333333" id="Fill-381" fill="#35A211"></path>
                    <polygon id="Fill-382" fill="#FFFFFF" points="6.40032 0 9.60032 0 9.60032 10.6666667 6.40032 10.6666667"></polygon>
                    <polygon id="Fill-383" fill="#FFFFFF" points="1.06698667 4.26666667 4.26698667 4.26666667 4.26698667 10.6666667 1.06698667 10.6666667"></polygon>
                    <polygon id="Fill-384" fill="#FFFFFF" points="11.7336533 6.4 14.9336533 6.4 14.9336533 10.6666667 11.7336533 10.6666667"></polygon>
                </g>
            </g>
        </g>
    </g>
</svg>