<?xml version="1.0" encoding="UTF-8"?>
<svg width="15px" height="19px" viewBox="0 0 15 19" version="1.1" xmlns="http://www.w3.org/2000/svg" xmlns:xlink="http://www.w3.org/1999/xlink">
    <!-- Generator: Sketch 45.2 (43514) - http://www.bohemiancoding.com/sketch -->
    <title>ic-ribbon</title>
    <desc>Created with Sketch.</desc>
    <defs></defs>
    <g id="Symbols" stroke="none" stroke-width="1" fill="none" fill-rule="evenodd">
        <g id="nav-left" transform="translate(0.000000, -160.000000)">
            <g id="ic-ribbon" transform="translate(1.000000, 161.000000)">
                <g id="Shape">
                    <path d="M11.4817105,5.88523846 C11.433229,5.23422692 11.1755911,1.95632308 10.8786504,1.34487692 C10.5002122,0.56565 8.82386852,0 6.89217321,0 C4.97681771,0 3.31395602,0.556511538 2.91719445,1.32597692 C2.91547977,1.32891923 2.9137651,1.33158462 2.91201681,1.33452692 C2.91030214,1.33805769 2.90771332,1.34131154 2.90599865,1.34487692 C2.60905786,1.95632308 2.35142004,5.23419231 2.30263595,5.88523846 C2.29745831,5.95789615 2.31813523,6.02996538 2.36117013,6.08787692 L4.082566,8.39187692 C4.17926004,8.52126923 4.35943505,8.54577692 4.48507677,8.44594615 C4.61075212,8.34670385 4.63398424,8.1612 4.5375928,8.03180769 L2.88333809,5.8176 C2.97112255,4.67415 3.13351205,3.00465 3.28874026,2.13386538 L6.00108188,5.79160385 C6.0575988,5.86782692 6.14279445,5.90770385 6.22946942,5.90770385 C6.29002086,5.90770385 6.35141283,5.88790385 6.40305471,5.84716154 C6.52930161,5.74819615 6.55337426,5.56269231 6.4572854,5.43302308 L5.81206454,4.56282692 C6.01288285,4.49961923 6.35144645,4.43080385 6.89224045,4.43080385 C7.41467737,4.43080385 7.76124278,4.49518846 7.97671985,4.55721923 L0.0656954597,15.1804038 C0.0048750469,15.2628231 -0.0100526829,15.3721038 0.0266614634,15.4684038 C0.0636781989,15.5649808 0.147159174,15.6344192 0.246442026,15.6515538 L1.79771557,15.9174 L2.31672315,17.5213385 C2.35000795,17.6247346 2.43634672,17.7009231 2.54107617,17.7192346 C2.55714702,17.7219 2.57321786,17.7230769 2.58871715,17.7230769 C2.67707317,17.7230769 2.76142829,17.6814346 2.81623054,17.6078769 L11.4232099,6.08787692 C11.4664802,6.02996538 11.4871571,5.95789615 11.4817105,5.88523846 Z M2.69025261,16.8073962 L2.28717028,15.5620385 C2.25361651,15.4583654 2.16697516,15.3821423 2.06194311,15.3641423 L0.811913846,15.1493885 L8.66376525,4.60533462 L8.66376525,4.60502308 L10.1444683,2.61678462 C10.2408597,2.48711538 10.2170561,2.30188846 10.0913807,2.20264615 C9.96513381,2.10309231 9.78553036,2.12822308 9.68886994,2.25730385 L8.34618116,4.06062692 C8.09284683,3.95989615 7.63553381,3.83998846 6.89217321,3.83998846 C6.13015295,3.83998846 5.68605298,3.96373846 5.44532653,4.06862308 L3.52052353,1.47309231 C3.90726604,1.06695 5.14811677,0.590780769 6.89217321,0.590780769 C8.83590484,0.590780769 10.1579503,1.18215 10.365392,1.60895769 C10.5510136,1.99176923 10.7880081,4.34450769 10.9013109,5.8176 L2.69025261,16.8073962 Z" stroke="#FFFFFF" stroke-width="0.2" fill="#FFFFFF" fill-rule="nonzero"></path>
                    <path d="M13.718651,15.1804038 L9.73217381,9.82654615 C9.63578236,9.69715385 9.45587632,9.67264615 9.32966304,9.77188846 C9.20398769,9.87113077 9.18018402,10.0563577 9.27657546,10.1860269 L12.9727015,15.1493885 L11.7224033,15.3641423 C11.6176738,15.3821769 11.5307635,15.4583654 11.4974787,15.5620385 L11.0938248,16.8082615 L7.84583325,12.4749692 C7.74887024,12.3461654 7.56926679,12.3219692 7.44301989,12.4214885 C7.3179161,12.5213192 7.29468398,12.7068231 7.39137801,12.8359038 L10.9684521,17.6081538 C11.0235233,17.6814 11.1078784,17.7230423 11.1956629,17.7230423 C11.2117337,17.7230423 11.2278046,17.7218654 11.2435728,17.7188885 C11.3483023,17.7005769 11.4343721,17.6246654 11.4679259,17.5212692 L11.9869334,15.9173308 L13.5379044,15.6514846 C13.6374562,15.63435 13.7209372,15.5649462 13.7579539,15.4683346 C13.7946681,15.3721038 13.779774,15.2628231 13.718651,15.1804038 Z" stroke="#35A211" stroke-width="0.2" fill="#35A211" fill-rule="nonzero"></path>
                </g>
            </g>
        </g>
    </g>
</svg>