<?xml version="1.0" encoding="UTF-8"?>
<svg width="17px" height="22px" viewBox="0 0 17 22" version="1.1" xmlns="http://www.w3.org/2000/svg" xmlns:xlink="http://www.w3.org/1999/xlink">
    <!-- Generator: Sketch 45.2 (43514) - http://www.bohemiancoding.com/sketch -->
    <title>ic-ribbon-active</title>
    <desc>Created with Sketch.</desc>
    <defs></defs>
    <g id="Symbols" stroke="none" stroke-width="1" fill="none" fill-rule="evenodd">
        <g id="ic-ribbon-active" transform="translate(1.000000, 1.000000)" stroke-width="0.2" stroke="#35A211" fill="#35A211" fill-rule="nonzero">
            <g id="Shape">
                <path d="M13.1219548,6.64132813 C13.0665474,5.90667969 12.7721042,2.20765625 12.4327433,1.51765625 C12.0002426,0.638320313 10.0844212,0 7.87676938,0 C5.68779167,0 3.78737831,0.628007813 3.33393651,1.49632812 C3.33197689,1.49964844 3.33001726,1.50265625 3.32801921,1.50597656 C3.32605959,1.50996094 3.32310094,1.51363281 3.32114131,1.51765625 C2.98178041,2.20765625 2.68733719,5.90664063 2.63158394,6.64132813 C2.62566664,6.72332031 2.64929741,6.80464844 2.69848015,6.87 L4.66578972,9.47 C4.77629719,9.61601563 4.98221148,9.64367188 5.12580203,9.53101563 C5.26943099,9.41902344 5.29598199,9.2096875 5.18582034,9.06367188 L3.29524353,6.565 C3.39556863,5.27464844 3.58115662,3.39066406 3.7585603,2.40800781 L6.85837929,6.53566406 C6.92297006,6.62167969 7.02033651,6.66667969 7.11939362,6.66667969 C7.18859527,6.66667969 7.25875752,6.64433594 7.31777681,6.59835938 C7.46205899,6.48667969 7.48957058,6.27734375 7.37975475,6.13101563 L6.64235947,5.14902344 C6.87186612,5.07769531 7.25879595,5.00003906 7.87684623,5.00003906 C8.473917,5.00003906 8.86999174,5.07269531 9.11625126,5.14269531 L0.0750805253,17.1306641 C0.00557148218,17.2236719 -0.0114887805,17.3469922 0.0304702439,17.4556641 C0.0727750844,17.5646484 0.168181914,17.6430078 0.28164803,17.6623438 L2.05453208,17.9623438 L2.6476836,19.7723438 C2.68572338,19.8890234 2.78439625,19.975 2.90408705,19.9956641 C2.92245373,19.9986719 2.94082041,20 2.95853388,20 C3.0595122,20 3.15591805,19.9530078 3.21854919,19.87 L13.055097,6.87 C13.1045487,6.80464844 13.1281795,6.72332031 13.1219548,6.64132813 Z M3.07457441,18.9666797 L2.61390889,17.5613281 C2.57556173,17.4443359 2.47654304,17.3583203 2.35650642,17.3380078 L0.927901538,17.0956641 L9.901446,5.19699219 L9.901446,5.19664063 L11.593678,2.95296875 C11.7038397,2.80664063 11.6766355,2.59761719 11.5330065,2.485625 C11.3887244,2.37328125 11.1834633,2.40164063 11.0729942,2.54730469 L9.53849276,4.58230469 C9.2489678,4.46863281 8.72632435,4.33332031 7.87676938,4.33332031 C7.00588908,4.33332031 6.49834627,4.47296875 6.22323032,4.59132813 L4.02345546,1.66234375 C4.4654469,1.20402344 5.88356203,0.666679688 7.87676938,0.666679688 C10.098177,0.666679688 11.6090861,1.33402344 11.8461623,1.81566406 C12.0583012,2.24765625 12.3291521,4.90265625 12.4586411,6.565 L3.07457441,18.9666797 Z"></path>
                <path d="M15.6784582,17.1306641 L11.1224844,11.0889844 C11.0123227,10.9429688 10.8067158,10.9153125 10.662472,11.0273047 C10.5188431,11.1392969 10.4916389,11.3483203 10.6018005,11.4946484 L14.8259446,17.0956641 L13.3970323,17.3380078 C13.2773415,17.3583594 13.1780155,17.4443359 13.1399757,17.5613281 L12.678657,18.9676563 L8.96666657,14.0776563 C8.85585171,13.9323047 8.65059062,13.905 8.50630844,14.0173047 C8.36333268,14.1299609 8.33678169,14.3392969 8.44728916,14.4849609 L12.5353738,19.8703125 C12.5983123,19.9529688 12.6947182,19.9999609 12.7950433,19.9999609 C12.81341,19.9999609 12.8317767,19.9986328 12.8497975,19.9952734 C12.9694883,19.9746094 13.0678538,19.8889453 13.106201,19.7722656 L13.6993525,17.9622656 L15.4718907,17.6622656 C15.5856642,17.6429297 15.6810711,17.5646094 15.7233759,17.4555859 C15.7653349,17.3469922 15.7483131,17.2236719 15.6784582,17.1306641 Z"></path>
            </g>
        </g>
    </g>
</svg>