<?xml version="1.0" encoding="UTF-8"?>
<svg width="18px" height="18px" viewBox="0 0 18 18" version="1.1" xmlns="http://www.w3.org/2000/svg" xmlns:xlink="http://www.w3.org/1999/xlink">
    <!-- Generator: Sketch 44.1 (41455) - http://www.bohemiancoding.com/sketch -->
    <title>Group 2</title>
    <desc>Created with Sketch.</desc>
    <defs></defs>
    <g id="Symbols" stroke="none" stroke-width="1" fill="none" fill-rule="evenodd">
        <g id="nav-left" transform="translate(0.000000, -391.000000)">
            <g id="Group-2" transform="translate(0.000000, 391.000000)">
                <path d="M8.96684211,13.1968421 C6.63442105,13.1968421 4.73684211,11.2992632 4.73684211,8.96684211 C4.73684211,6.63442105 6.63442105,4.73684211 8.96684211,4.73684211 C11.2992632,4.73684211 13.1968421,6.63442105 13.1968421,8.96684211 C13.1968421,11.2992632 11.2992632,13.1968421 8.96684211,13.1968421 L8.96684211,13.1968421 Z M8.96684211,5.61789474 C7.12042105,5.61789474 5.61789474,7.12042105 5.61789474,8.96684211 C5.61789474,10.8132632 7.12042105,12.3157895 8.96684211,12.3157895 C10.8132632,12.3157895 12.3157895,10.8132632 12.3157895,8.96684211 C12.3157895,7.12042105 10.8132632,5.61789474 8.96684211,5.61789474 L8.96684211,5.61789474 Z" id="Fill-45" fill="#35A211"></path>
                <path d="M10.2315789,17.9336842 L7.70210526,17.9336842 L6.97215789,15.7452632 C6.48947368,15.6036316 6.02431579,15.4108421 5.58331579,15.1702105 L3.52089474,16.2014211 L1.73178947,14.4127895 L2.76347368,12.3498947 C2.52284211,11.9098421 2.33052632,11.4446842 2.18842105,10.9610526 L0,10.2315789 L0,7.70210526 L2.18842105,6.97263158 C2.33052632,6.489 2.52284211,6.02384211 2.76347368,5.58378947 L1.73178947,3.52089474 L3.52089474,1.73178947 L5.58331579,2.76347368 C6.02431579,2.52284211 6.48947368,2.33005263 6.97215789,2.18842105 L7.70210526,0 L10.2315789,0 L10.9615263,2.18842105 C11.4437368,2.33005263 11.9093684,2.52284211 12.3503684,2.76347368 L14.4127895,1.73178947 L16.2018947,3.52089474 L15.1702105,5.58378947 C15.4108421,6.02384211 15.6031579,6.489 15.7452632,6.97263158 L17.9336842,7.70210526 L17.9336842,10.2315789 L15.7452632,10.9610526 C15.6031579,11.4446842 15.4108421,11.9098421 15.1702105,12.3498947 L16.2018947,14.4127895 L14.4127895,16.2014211 L12.3503684,15.1702105 C11.9093684,15.4108421 11.4437368,15.6036316 10.9615263,15.7452632 L10.2315789,17.9336842 L10.2315789,17.9336842 Z M8.33684211,17.0526316 L9.59684211,17.0526316 L10.2761053,15.0157895 L10.5082105,14.9561053 C11.0723684,14.8111579 11.6123684,14.5880526 12.1125789,14.292 L12.3191053,14.1697895 L14.2389474,15.1299474 L15.1299474,14.2389474 L14.1693158,12.3191053 L14.292,12.1121053 C14.5871053,11.6133158 14.8106842,11.0737895 14.9565789,10.5077368 L15.0157895,10.2756316 L17.0526316,9.59684211 L17.0526316,8.33684211 L15.0157895,7.65805263 L14.9565789,7.42594737 C14.8106842,6.85989474 14.5871053,6.32036842 14.292,5.82157895 L14.1693158,5.61457895 L15.1299474,3.69473684 L14.2389474,2.80373684 L12.3191053,3.76389474 L12.1125789,3.64168421 C11.6123684,3.34563158 11.0723684,3.12252632 10.5082105,2.97757895 L10.2761053,2.91789474 L9.59684211,0.881052632 L8.33684211,0.881052632 L7.65757895,2.91789474 L7.42547368,2.97757895 C6.86131579,3.12252632 6.32131579,3.34563158 5.82110526,3.64168421 L5.61457895,3.76389474 L3.69473684,2.80373684 L2.80373684,3.69473684 L3.76436842,5.61457895 L3.64168421,5.82157895 C3.34657895,6.32036842 3.123,6.85989474 2.97710526,7.42594737 L2.91742105,7.65805263 L0.881052632,8.33684211 L0.881052632,9.59684211 L2.91742105,10.2756316 L2.97710526,10.5077368 C3.123,11.0737895 3.34657895,11.6133158 3.64168421,12.1121053 L3.76436842,12.3191053 L2.80373684,14.2389474 L3.69473684,15.1299474 L5.61457895,14.1697895 L5.82110526,14.292 C6.32131579,14.5880526 6.86131579,14.8111579 7.42547368,14.9561053 L7.65757895,15.0157895 L8.33684211,17.0526316 L8.33684211,17.0526316 Z" id="Fill-46" fill="#FFFFFF"></path>
            </g>
        </g>
    </g>
</svg>