<?xml version="1.0" encoding="UTF-8"?>
<svg width="22px" height="21px" viewBox="0 0 22 21" version="1.1" xmlns="http://www.w3.org/2000/svg" xmlns:xlink="http://www.w3.org/1999/xlink">
    <!-- Generator: Sketch 45.2 (43514) - http://www.bohemiancoding.com/sketch -->
    <title>ic-user</title>
    <desc>Created with Sketch.</desc>
    <defs></defs>
    <g id="Symbols" stroke="none" stroke-width="1" fill="none" fill-rule="evenodd">
        <g id="4report" transform="translate(-623.000000, -24.000000)" stroke="#FFFFFF">
            <g id="ic-user-admin" transform="translate(624.000000, 25.000000)">
                <g>
                    <path d="M12.75,13.4521903 L9.375,11.0992492 C10.5,10.2757197 11.25,9.09924915 11.25,7.68748445 L11.25,6.74630797 C11.25,4.51101386 9.5,2.51101386 7.125,2.3933668 C4.625,2.27571974 2.5,4.15807268 2.5,6.51101386 L2.5,7.68748445 C2.5,9.09924915 3.25,10.2757197 4.375,11.0992492 L1,13.5698374 C0.375,14.0404256 0,14.746308 0,15.4521903 L0,17.6874844 C0,18.3933668 0.5,18.863955 1.25,18.863955 L12.5,18.863955 C13.25,18.863955 13.75,18.3933668 13.75,17.6874844 L13.75,15.3345433 C13.75,14.6286609 13.375,13.9227786 12.75,13.4521903" id="Fill-16"></path>
                    <path d="M18.875,7.56983739 L16.625,6.15807268 C17.125,5.68748445 17.5,4.98160209 17.5,4.15807268 L17.5,3.09924915 C17.5,1.68748445 16.375,0.275719739 14.875,0.0404256217 C13.375,-0.194868496 12.125,0.628660916 11.5,1.68748445 C12.875,2.86395503 13.75,4.51101386 13.75,6.3933668 L13.75,7.56983739 C13.75,8.62866092 13.5,9.68748445 13,10.5110139 C13,10.5110139 14.5,11.5698374 14.5,11.6874844 L18.75,11.6874844 C19.5,11.6874844 20,11.2168962 20,10.5110139 L20,9.56983739 C20,8.74630797 19.625,8.04042562 18.875,7.56983739" id="Fill-17"></path>
                </g>
            </g>
        </g>
    </g>
</svg>