<?xml version="1.0" encoding="UTF-8"?>
<svg width="14px" height="18px" viewBox="0 0 14 18" version="1.1" xmlns="http://www.w3.org/2000/svg" xmlns:xlink="http://www.w3.org/1999/xlink">
    <!-- Generator: Sketch 45.2 (43514) - http://www.bohemiancoding.com/sketch -->
    <title>ic-user-admin</title>
    <desc>Created with Sketch.</desc>
    <defs></defs>
    <g id="Symbols" stroke="none" stroke-width="1" fill="none" fill-rule="evenodd">
        <g id="nav-left" transform="translate(-1.000000, -86.000000)" stroke="#FFFFFF">
            <g id="ic-user-admin" transform="translate(2.000000, 87.000000)">
                <path d="M11.1272727,10.7744423 L8.18181818,8.48945354 C9.16363636,7.68970749 9.81818182,6.54721312 9.81818182,5.17621988 L9.81818182,4.26222438 C9.81818182,2.09148509 8.29090909,0.149244661 6.21818182,0.0349952245 C4.03636364,-0.0792542123 2.18181818,1.74873678 2.18181818,4.03372551 L2.18181818,5.17621988 C2.18181818,6.54721312 2.83636364,7.68970749 3.81818182,8.48945354 L0.872727273,10.8886917 C0.327272727,11.3456895 0,12.0311861 0,12.7166827 L0,14.887422 C0,15.5729186 0.436363636,16.0299164 1.09090909,16.0299164 L10.9090909,16.0299164 C11.5636364,16.0299164 12,15.5729186 12,14.887422 L12,12.6024333 C12,11.9169366 11.6727273,11.23144 11.1272727,10.7744423" id="Fill-16"></path>
            </g>
        </g>
    </g>
</svg>