<?xml version="1.0" encoding="UTF-8"?>
<svg width="96px" height="133px" viewBox="0 0 96 133" version="1.1" xmlns="http://www.w3.org/2000/svg" xmlns:xlink="http://www.w3.org/1999/xlink">
    <!-- Generator: Sketch 44.1 (41455) - http://www.bohemiancoding.com/sketch -->
    <title>logo</title>
    <desc>Created with Sketch.</desc>
    <defs>
        <polygon id="path-1" points="0.376512772 0.116207071 70.8492531 0.116207071 70.8492531 74.4893006 0.376512772 74.4893006 0.376512772 0.116207071"></polygon>
    </defs>
    <g id="Page-1" stroke="none" stroke-width="1" fill="none" fill-rule="evenodd">
        <g id="0-signin" transform="translate(-257.000000, -70.000000)">
            <g id="Group" transform="translate(110.000000, 41.000000)">
                <g id="logo" transform="translate(147.000000, 29.000000)">
                    <g id="Group-3" transform="translate(14.097902, 0.555510)">
                        <mask id="mask-2" fill="white">
                            <use xlink:href="#path-1"></use>
                        </mask>
                        <g id="Clip-2"></g>
                        <path d="M21.4582825,2.10946061 C17.4282965,3.36691515 8.83797483,7.89294545 3.98561119,15.3490061 C-3.16135385,26.3295667 -0.774109091,44.0783495 21.0091636,63.3284202 C42.791765,82.5784909 49.5533874,72.6034909 55.0864783,65.3429 C58.5988699,60.7335768 69.246814,36.1453697 70.5082406,25.913102 C71.7475133,15.8655566 70.3001287,6.37150606 54.3352615,2.80670303 C38.3703944,-0.757428283 30.0197371,-0.561958586 21.4582825,2.10946061" id="Fill-1" fill="#77CC50" mask="url(#mask-2)"></path>
                        <path d="M33.329186,7.58986667 C27.3610741,7.61875051 17.1286825,10.4520535 11.5472559,18.8491899 C3.50272448,30.9515182 12.5656615,45.4545636 15.7907245,49.2571545 C22.1173259,56.7172455 40.8695497,68.6153717 50.9112839,57.4171747 C60.9536895,46.2183061 58.6087385,42.3962354 56.0227804,39.1337051 C53.436151,35.870503 47.200179,32.6422303 48.0306126,27.8132556 C48.8610462,22.9842808 56.1946406,23.9340889 55.5387524,18.8303818 C54.4599273,10.4386192 38.7253259,7.5636697 33.329186,7.58986667" id="Fill-4" fill="#35A211" mask="url(#mask-2)"></path>
                        <path d="M28.7342769,18.2735283 C24.6700531,19.5464323 21.5852979,23.8125081 20.8938294,30.847402 C20.2560671,37.3321596 21.2751441,45.313503 24.6358154,48.1454626 C29.484151,52.2308465 42.830165,52.0461242 44.9179972,46.812104 C46.2183608,43.5515889 41.3525706,32.1626242 38.5235916,26.6646192 C35.5556476,20.8965838 32.1546965,17.2021394 28.7342769,18.2735283" id="Fill-6" fill="#007030" mask="url(#mask-2)"></path>
                        <path d="M34.3254378,39.7673359 C34.6114238,41.6447854 33.3224727,43.3993106 31.4461091,43.6854621 C29.5690741,43.9722854 27.8155636,42.6819167 27.5295776,40.8044672 C27.2435916,38.9270177 28.5325427,37.1724924 30.4095776,36.8863409 C32.2859413,36.5995177 34.0394517,37.8898864 34.3254378,39.7673359" id="Fill-8" fill="#FFFFFF" mask="url(#mask-2)"></path>
                    </g>
                    <polygon id="Fill-10" fill="#444444" points="0 95.1799722 6.02517483 95.1799722 12.5108811 112.663427 18.9972587 95.1799722 24.8801119 95.1799722 14.8504615 120.180614 10.0303217 120.180614"></polygon>
                    <path d="M34.1629091,107.662828 L34.1629091,107.591626 C34.1629091,100.535237 39.6563916,94.7537677 47.1699021,94.7537677 C51.6362517,94.7537677 54.3296224,95.9601717 56.9169231,98.158702 L53.479049,102.307899 C51.5650909,100.711899 49.8632727,99.7896313 46.9933427,99.7896313 C43.0237762,99.7896313 39.8692028,103.300697 39.8692028,107.521096 L39.8692028,107.591626 C39.8692028,112.131091 42.9881958,115.464823 47.3827133,115.464823 C49.3678322,115.464823 51.1394685,114.967753 52.5217343,113.974955 L52.5217343,110.428288 L47.0289231,110.428288 L47.0289231,105.712162 L57.8024056,105.712162 L57.8024056,116.493222 C55.2506853,118.656152 51.7423217,120.428813 47.2054825,120.428813 C39.4791608,120.428813 34.1629091,115.003354 34.1629091,107.662828" id="Fill-12" fill="#444444"></path>
                    <path d="M85.4438937,109.613361 L82.1476699,101.56283 L78.8514462,109.613361 L85.4438937,109.613361 Z M79.7026909,95.0021687 L84.7349706,95.0021687 L95.3681455,120.003482 L89.6618517,120.003482 L87.3934322,114.43629 L76.9019077,114.43629 L74.6341594,120.003482 L69.0701874,120.003482 L79.7026909,95.0021687 Z" id="Fill-14" fill="#444444"></path>
                    <polygon id="Fill-16" fill="#444444" points="0.975977622 128.060595 1.72316643 128.060595 2.96243916 131.844378 4.22923636 128.042459 4.81262098 128.042459 6.08814545 131.844378 7.32741818 128.060595 8.05648112 128.060595 6.3982993 132.810979 5.78739021 132.810979 4.52059301 129.090337 3.24506853 132.810979 2.62543217 132.810979"></polygon>
                    <path d="M17.4062769,132.254528 C17.6613818,132.254528 17.8950042,132.206165 18.1078154,132.108766 C18.3206266,132.011367 18.5025566,131.881054 18.6549483,131.716483 C18.8066685,131.552584 18.9248224,131.361144 19.0100811,131.142165 C19.0953399,130.923185 19.1376336,130.689427 19.1376336,130.44022 L19.1376336,130.422084 C19.1376336,130.16616 19.0933259,129.9277 19.0053818,129.706705 C18.9174378,129.484367 18.7945846,129.289569 18.6368224,129.122983 C18.4783888,128.955725 18.2931021,128.823397 18.0809622,128.725998 C17.8674797,128.629271 17.637214,128.580235 17.388151,128.580235 C17.1330462,128.580235 16.8987524,128.629271 16.6866126,128.725998 C16.4738014,128.823397 16.293214,128.95371 16.144179,129.118281 C15.9951441,129.28218 15.8783329,129.475634 15.7930741,129.697301 C15.7084867,129.918968 15.6655217,130.15474 15.6655217,130.403947 L15.6655217,130.422084 C15.6655217,130.677336 15.7098294,130.915796 15.7977734,131.137463 C15.8857175,131.359801 16.007228,131.552584 16.1623049,131.716483 C16.3173818,131.881054 16.5013259,132.011367 16.7134657,132.108766 C16.9262769,132.206165 17.157214,132.254528 17.4062769,132.254528 M17.388151,132.883927 C17.0357035,132.883927 16.7107804,132.818771 16.4127105,132.687786 C16.1153119,132.557473 15.8568503,132.381483 15.6379972,132.159144 C15.4198154,131.936806 15.2492979,131.678867 15.1277874,131.383983 C15.0062769,131.089099 14.9458573,130.774735 14.9458573,130.44022 L14.9458573,130.422084 C14.9458573,130.087569 15.0062769,129.771862 15.1277874,129.473619 C15.2492979,129.176048 15.4198154,128.914751 15.6379972,128.689054 C15.8568503,128.4647 16.1166545,128.287367 16.4174098,128.156382 C16.718165,128.025397 17.0477874,127.96024 17.4062769,127.96024 C17.7587245,127.96024 18.0849902,128.025397 18.3857455,128.156382 C18.6865007,128.287367 18.9463049,128.463357 19.165158,128.685023 C19.3833399,128.90669 19.5538573,129.165301 19.6753678,129.460185 C19.7968783,129.755069 19.8572979,130.069432 19.8572979,130.403947 L19.8572979,130.422084 C19.8572979,130.755927 19.7955357,131.072978 19.6706685,131.369877 C19.5464727,131.668119 19.3746126,131.929417 19.1557594,132.154442 C18.9369063,132.379468 18.6757594,132.557473 18.3723189,132.687786 C18.068207,132.818771 17.7399273,132.883927 17.388151,132.883927" id="Fill-18" fill="#444444"></path>
                    <path d="M27.1385287,128.060595 L27.8400671,128.060595 L27.8400671,129.291181 C27.9253259,129.097055 28.0313958,128.917706 28.1589483,128.753135 C28.2865007,128.589236 28.4328503,128.448176 28.5966545,128.329282 C28.7604587,128.21106 28.9397035,128.121721 29.1343888,128.060595 C29.3284028,127.999469 29.5385287,127.9726 29.7627524,127.978645 L29.7627524,128.735671 L29.7083748,128.735671 C29.4532699,128.735671 29.2115916,128.780676 28.9840112,128.872029 C28.7564308,128.962711 28.5570462,129.099741 28.3872,129.282448 C28.2166825,129.464484 28.0830881,129.690853 27.9864168,129.961555 C27.8890741,130.232257 27.8400671,130.543262 27.8400671,130.895913 L27.8400671,132.774706 L27.1385287,132.774706 L27.1385287,128.060595 Z" id="Fill-21" fill="#444444"></path>
                    <polygon id="Fill-23" fill="#444444" points="36.9076364 132.774303 37.6091748 132.774303 37.6091748 126.118258 36.9076364 126.118258"></polygon>
                    <path d="M47.3596196,132.245662 C47.5784727,132.245662 47.7892699,132.201328 47.9926825,132.113333 C48.1967664,132.025338 48.3786965,131.901071 48.5398154,131.739859 C48.7002629,131.578646 48.8278154,131.387207 48.9224727,131.16554 C49.0164587,130.943202 49.0641231,130.69601 49.0641231,130.421949 L49.0641231,130.403813 C49.0641231,130.130424 49.0164587,129.882561 48.9224727,129.660222 C48.8278154,129.438556 48.7002629,129.249131 48.5398154,129.090606 C48.3786965,128.932753 48.1967664,128.809828 47.9926825,128.721833 C47.7892699,128.633167 47.5784727,128.589505 47.3596196,128.589505 C47.1286825,128.589505 46.913186,128.63048 46.7124587,128.712429 C46.5124028,128.794379 46.337186,128.913273 46.188151,129.067768 C46.0397874,129.222934 45.9216336,129.41303 45.8336895,129.637384 C45.7450741,129.863081 45.7007664,130.118333 45.7007664,130.403813 L45.7007664,130.421949 C45.7007664,130.702056 45.7450741,130.953949 45.8336895,131.178303 C45.9216336,131.404 46.0411301,131.595439 46.1935217,131.753293 C46.345242,131.911146 46.5211301,132.032727 46.7218573,132.118035 C46.9219133,132.203343 47.1347245,132.245662 47.3596196,132.245662 M47.2320671,132.875061 C46.9460811,132.875061 46.670165,132.81998 46.4029762,132.71049 C46.1357874,132.601 45.8954517,132.441803 45.6826406,132.231556 C45.4698294,132.02198 45.2999832,131.766727 45.1724308,131.465798 C45.0448783,131.16554 44.9811021,130.820278 44.9811021,130.431354 L44.9811021,130.412545 C44.9811021,130.029667 45.0448783,129.686419 45.1724308,129.382131 C45.2999832,129.078515 45.4698294,128.821919 45.6826406,128.612343 C45.8954517,128.402768 46.1357874,128.240884 46.4029762,128.128707 C46.670165,128.01653 46.9460811,127.960106 47.2320671,127.960106 C47.4509203,127.960106 47.6516476,127.987646 47.8335776,128.042056 C48.0155077,128.096465 48.1799832,128.169682 48.3256615,128.261035 C48.4713399,128.351717 48.6035916,128.45852 48.7224168,128.580101 C48.8405706,128.701682 48.9452979,128.829308 49.0359273,128.96298 L49.0359273,126.118258 L49.7381371,126.118258 L49.7381371,132.774303 L49.0359273,132.774303 L49.0359273,131.825838 C48.9392559,131.966227 48.831172,132.099899 48.7130182,132.227525 C48.594193,132.355152 48.4619413,132.468 48.3162629,132.564727 C48.1705846,132.662126 48.0074517,132.73803 47.8288783,132.792439 C47.6496336,132.84752 47.4509203,132.875061 47.2320671,132.875061" id="Fill-25" fill="#444444"></path>
                    <polygon id="Fill-26" fill="#444444" points="56.9188028 128.060595 57.6666629 128.060595 58.9052643 131.844378 60.1720615 128.042459 60.7554462 128.042459 62.0309706 131.844378 63.2702434 128.060595 63.9993063 128.060595 62.3411245 132.810979 61.7302154 132.810979 60.4634182 129.090337 59.1878937 132.810979 58.5682573 132.810979"></polygon>
                    <path d="M71.2440839,132.774975 L71.9456224,132.774975 L71.9456224,128.060864 L71.2440839,128.060864 L71.2440839,132.774975 Z M71.1984336,127.030449 L72.0006713,127.030449 L72.0006713,126.255288 L71.1984336,126.255288 L71.1984336,127.030449 Z" id="Fill-27" fill="#444444"></path>
                    <path d="M81.6960671,132.245662 C81.9149203,132.245662 82.1257175,132.201328 82.3291301,132.113333 C82.533214,132.025338 82.7151441,131.901071 82.8762629,131.739859 C83.0367105,131.578646 83.1642629,131.387207 83.2589203,131.16554 C83.3529063,130.943202 83.4005706,130.69601 83.4005706,130.421949 L83.4005706,130.403813 C83.4005706,130.130424 83.3529063,129.882561 83.2589203,129.660222 C83.1642629,129.438556 83.0367105,129.249131 82.8762629,129.090606 C82.7151441,128.932753 82.533214,128.809828 82.3291301,128.721833 C82.1257175,128.633167 81.9149203,128.589505 81.6960671,128.589505 C81.4651301,128.589505 81.2496336,128.63048 81.0489063,128.712429 C80.8488503,128.794379 80.6736336,128.913273 80.5245986,129.067768 C80.376235,129.222934 80.2580811,129.41303 80.1701371,129.637384 C80.0815217,129.863081 80.037214,130.118333 80.037214,130.403813 L80.037214,130.421949 C80.037214,130.702056 80.0815217,130.953949 80.1701371,131.178303 C80.2580811,131.404 80.3775776,131.595439 80.5299692,131.753293 C80.6816895,131.911146 80.8575776,132.032727 81.0583049,132.118035 C81.2583608,132.203343 81.471172,132.245662 81.6960671,132.245662 M81.5685147,132.875061 C81.2825287,132.875061 81.0066126,132.81998 80.7394238,132.71049 C80.472235,132.601 80.2318993,132.441803 80.0190881,132.231556 C79.8062769,132.02198 79.6364308,131.766727 79.5088783,131.465798 C79.3813259,131.16554 79.3175497,130.820278 79.3175497,130.431354 L79.3175497,130.412545 C79.3175497,130.029667 79.3813259,129.686419 79.5088783,129.382131 C79.6364308,129.078515 79.8062769,128.821919 80.0190881,128.612343 C80.2318993,128.402768 80.472235,128.240884 80.7394238,128.128707 C81.0066126,128.01653 81.2825287,127.960106 81.5685147,127.960106 C81.7866965,127.960106 81.9880951,127.987646 82.1700252,128.042056 C82.3519552,128.096465 82.5164308,128.169682 82.6621091,128.261035 C82.8077874,128.351717 82.9400392,128.45852 83.0588643,128.580101 C83.1770182,128.701682 83.2817455,128.829308 83.3723748,128.96298 L83.3723748,126.118258 L84.0745846,126.118258 L84.0745846,132.774303 L83.3723748,132.774303 L83.3723748,131.825838 C83.2757035,131.966227 83.1676196,132.099899 83.0494657,132.227525 C82.9306406,132.355152 82.7983888,132.468 82.6527105,132.564727 C82.5070322,132.662126 82.3438993,132.73803 82.1653259,132.792439 C81.9860811,132.84752 81.7866965,132.875061 81.5685147,132.875061" id="Fill-28" fill="#444444"></path>
                    <path d="M95.1100867,130.130357 C95.0919608,129.918766 95.0463105,129.717923 94.9731357,129.527155 C94.9006322,129.337059 94.8012755,129.16913 94.6770797,129.024039 C94.5522126,128.87962 94.4004923,128.764756 94.2219189,128.68012 C94.0420028,128.595483 93.8372476,128.552493 93.6063105,128.552493 C93.4055832,128.552493 93.2176112,128.592125 93.0417231,128.670716 C92.8651636,128.749307 92.7100867,128.859468 92.5764923,129.001201 C92.4428979,129.143605 92.3321287,129.310862 92.2441846,129.504317 C92.1562406,129.698443 92.099849,129.906675 92.0756811,130.130357 L95.1100867,130.130357 Z M92.0756811,130.704675 C92.099849,130.953882 92.1602685,131.175549 92.2576112,131.370347 C92.3549538,131.565145 92.4791497,131.729044 92.6308699,131.862716 C92.7832615,131.996387 92.953779,132.098488 93.141751,132.167675 C93.3297231,132.238206 93.527765,132.273135 93.7338629,132.273135 C94.0621427,132.273135 94.342758,132.21268 94.5770517,132.091099 C94.8106741,131.968847 95.024828,131.807635 95.2195133,131.607463 L95.6572196,131.999074 C95.4202406,132.267089 95.1496951,132.481367 94.8455832,132.642579 C94.5421427,132.80312 94.1655273,132.883726 93.7157371,132.883726 C93.3934993,132.883726 93.0900587,132.824615 92.8047441,132.706392 C92.518758,132.587498 92.2696951,132.420241 92.0568839,132.20462 C91.8447441,131.988998 91.6762406,131.729044 91.5513734,131.424756 C91.4265063,131.12114 91.3647441,130.786625 91.3647441,130.421882 C91.3647441,130.081993 91.4211357,129.760913 91.5332476,129.459983 C91.6460308,129.159054 91.801779,128.897756 92.0025063,128.676089 C92.2032336,128.453751 92.4415552,128.279105 92.7174713,128.151478 C92.9940587,128.023852 93.296828,127.960039 93.6244364,127.960039 C93.970842,127.960039 94.2809958,128.025195 94.5542266,128.15618 C94.8274573,128.287165 95.0583944,128.464498 95.2463664,128.689524 C95.4350098,128.914549 95.5780028,129.179206 95.6753455,129.482822 C95.7720168,129.78711 95.8210238,130.112221 95.8210238,130.458155 L95.8210238,130.562943 C95.8210238,130.602574 95.8176671,130.649594 95.8116252,130.704675 L92.0756811,130.704675 Z" id="Fill-29" fill="#444444"></path>
                </g>
            </g>
        </g>
    </g>
</svg>